<svg width="1529" height="1030" viewBox="0 0 1529 1030" fill="none" xmlns="http://www.w3.org/2000/svg">
<g clip-path="url(#clip0_0_107)">
<rect width="1529" height="1030" rx="20" fill="white"/>
<mask id="mask0_0_107" style="mask-type:luminance" maskUnits="userSpaceOnUse" x="0" y="0" width="1529" height="1030">
<rect width="1529" height="1030" rx="20" fill="white"/>
</mask>
<g mask="url(#mask0_0_107)">
<path fill-rule="evenodd" clip-rule="evenodd" d="M263.624 373.86C256.125 363.36 250.733 351.129 248.227 337.642C239.003 288.004 272.089 240.346 322.128 231.195C334.205 228.987 346.16 229.244 357.488 231.571C368.208 210.697 388.244 194.823 413.264 190.247C455.935 182.444 494.083 212.137 501.949 254.467L500.434 257.525C524.256 263.207 541.964 284.467 541.964 309.841C541.964 320.486 538.836 330.402 533.459 338.756C570.962 343.36 600 375.061 600 413.511C600 455.128 563.642 475.135 524.038 488.865C489.556 500.819 361.155 538.706 361.155 538.706C311.116 547.858 244.767 507.175 235.541 457.537C229.6 425.563 241.231 394.427 263.624 373.86Z" fill="#036666"/>
<path fill-rule="evenodd" clip-rule="evenodd" d="M755 400.919C781.166 388.529 812.118 393.713 812.118 393.713C812.118 393.713 857.807 387.226 859.68 394.313C863.719 409.581 828.145 424 828.145 424L755 400.919Z" fill="#5A2E24"/>
<path fill-rule="evenodd" clip-rule="evenodd" d="M796.872 439.225C838.467 438.768 861.439 421.651 864.737 406.993C866.371 399.723 860.034 394.709 855.66 402.759C851.909 409.66 840.575 417.543 839.454 417.429C845.174 412.608 852.528 405.547 854.49 399.683C857.824 389.718 856.357 379.271 849.637 376.53C846.98 375.446 845.337 378.472 845.337 378.472C845.337 378.472 844.585 369.568 838.619 370.016C830.558 370.622 830.452 381.668 830.452 381.668C830.452 381.668 831.838 372.639 824.346 373.252C819.029 373.687 817.791 382.17 815.095 390.228C811.76 400.193 788.948 402.33 784.739 400.638C780.53 398.948 762.485 394.402 750.411 405.175C727.441 425.672 698 534.978 698 534.978L764.89 584L796.872 439.225Z" fill="#C28160"/>
<path fill-rule="evenodd" clip-rule="evenodd" d="M203.599 554.201C241.135 526.978 317.751 440.079 368.615 435.6C380.985 431.435 404.835 424.101 432.419 419.195C471.14 412.307 515.429 413.309 522.678 413.53C522.715 413.526 522.744 413.516 522.782 413.511C583.87 402.873 679.572 561.921 679.572 561.921C679.572 561.921 697.468 488.264 716.171 470.324C716.171 470.324 708.816 455.163 714.284 452.372C719.75 449.578 786.899 465.411 797.072 470.688C806.518 475.584 790.087 491.859 790.087 491.859C790.087 491.859 781.974 611.959 732.786 655.675C675.523 706.567 637.059 667.43 586.869 597.529C586.004 650.227 575.415 736.527 549.659 739.568C503.555 745.01 401.511 745.454 352.728 740.823C336.104 739.245 319.861 657.176 314.44 613.468C261.715 656.657 197.45 684.671 175.565 672.986C149.259 658.94 158.577 586.851 203.599 554.201Z" fill="#FF8548"/>
<path fill-rule="evenodd" clip-rule="evenodd" d="M587.499 599C587.945 599 588.343 598.684 588.428 598.232C600.153 535.548 568.011 494.756 567.684 494.353C567.358 493.944 566.762 493.884 566.356 494.206C565.947 494.53 565.881 495.123 566.208 495.53C566.528 495.929 598.128 536.089 586.568 597.885C586.471 598.398 586.812 598.891 587.325 598.983C587.383 598.994 587.442 599 587.499 599Z" fill="#D56E3A"/>
<path fill-rule="evenodd" clip-rule="evenodd" d="M313.946 615C314.153 615 314.361 614.934 314.535 614.791C324.034 607.195 328.69 598.762 328.883 598.406C329.135 597.947 328.966 597.369 328.508 597.118C328.051 596.864 327.473 597.035 327.224 597.494C327.176 597.578 322.541 605.962 313.356 613.307C312.947 613.634 312.881 614.231 313.206 614.641C313.392 614.877 313.668 615 313.946 615Z" fill="#D56E3A"/>
<path fill-rule="evenodd" clip-rule="evenodd" d="M213.795 548C213.795 548 225.236 606.385 217.047 622.799C208.856 639.215 200 558.414 200 558.414L213.795 548Z" fill="#D56E3A"/>
<path fill-rule="evenodd" clip-rule="evenodd" d="M681 562.657C681 562.657 669.372 596.228 669.02 606C669.02 606 662.348 567.061 673.256 551L681 562.657Z" fill="#D56E3A"/>
<path fill-rule="evenodd" clip-rule="evenodd" d="M731.466 474.994C731.938 474.994 732.348 474.66 732.415 474.2C732.49 473.693 732.124 473.228 731.6 473.155C728.508 472.736 725.301 472.35 722.064 472.004C721.523 471.958 721.065 472.316 721.006 472.823C720.948 473.329 721.328 473.786 721.855 473.843C725.071 474.185 728.261 474.569 731.332 474.985C731.378 474.993 731.422 474.994 731.466 474.994ZM750.332 478.216C750.773 478.216 751.17 477.92 751.265 477.49C751.38 476.99 751.053 476.497 750.535 476.388C747.516 475.752 744.342 475.152 741.096 474.601C740.575 474.508 740.079 474.847 739.987 475.349C739.895 475.852 740.243 476.331 740.763 476.419C743.983 476.966 747.133 477.563 750.125 478.194C750.194 478.208 750.265 478.216 750.332 478.216ZM768.797 483.106C769.194 483.106 769.566 482.866 769.702 482.483C769.874 482.001 769.608 481.474 769.108 481.31C766.232 480.354 763.129 479.441 759.888 478.589C759.38 478.454 758.851 478.746 758.711 479.238C758.573 479.731 758.874 480.24 759.383 480.373C762.586 481.214 765.648 482.116 768.485 483.056C768.588 483.09 768.694 483.106 768.797 483.106ZM786.041 491C786.317 491 786.59 490.887 786.779 490.667C787.117 490.275 787.061 489.693 786.655 489.366C786.555 489.287 784.124 487.359 778.102 484.723C777.621 484.509 777.053 484.72 776.835 485.184C776.616 485.648 776.829 486.196 777.31 486.405C783.057 488.921 785.407 490.771 785.43 490.787C785.61 490.932 785.827 491 786.041 491Z" fill="#FFAB81"/>
<path fill-rule="evenodd" clip-rule="evenodd" d="M521.856 708L523 702.958L500.144 698L499 703.042L521.856 708Z" fill="#FFAB81"/>
<path fill-rule="evenodd" clip-rule="evenodd" d="M390.857 564L392 558.958L369.144 554L368 559.042L390.857 564Z" fill="#FFAB81"/>
<path fill-rule="evenodd" clip-rule="evenodd" d="M284.857 611L286 605.959L263.144 601L262 606.043L284.857 611Z" fill="#FFAB81"/>
<path fill-rule="evenodd" clip-rule="evenodd" d="M364.857 721L366 715.959L343.143 711L342 716.043L364.857 721Z" fill="#FFAB81"/>
<path fill-rule="evenodd" clip-rule="evenodd" d="M436 568.46L441.504 569L444 545.542L438.494 545L436 568.46Z" fill="#FFAB81"/>
<path fill-rule="evenodd" clip-rule="evenodd" d="M690 594.46L695.504 595L698 571.542L692.496 571L690 594.46Z" fill="#FFAB81"/>
<path fill-rule="evenodd" clip-rule="evenodd" d="M407.081 511L411 507.564L395.921 490L392 493.436L407.081 511Z" fill="#FFAB81"/>
<path fill-rule="evenodd" clip-rule="evenodd" d="M342.136 473L342 478.394L365.864 479L366 473.606L342.136 473Z" fill="#FFAB81"/>
<path fill-rule="evenodd" clip-rule="evenodd" d="M504.471 624L510 623.896L509.529 600L504 600.104L504.471 624Z" fill="#FFAB81"/>
<path fill-rule="evenodd" clip-rule="evenodd" d="M553 680.865L557.218 684L571 665.135L566.782 662L553 680.865Z" fill="#FFAB81"/>
<path fill-rule="evenodd" clip-rule="evenodd" d="M735 519.239L736.5 524L759 517.759L757.5 513L735 519.239Z" fill="#FFAB81"/>
<path fill-rule="evenodd" clip-rule="evenodd" d="M431 714.865L435.22 718L449 699.133L444.782 696L431 714.865Z" fill="#FFAB81"/>
<path fill-rule="evenodd" clip-rule="evenodd" d="M482.667 665L486 660.788L467.331 646L464 650.212L482.667 665Z" fill="#FFAB81"/>
<path fill-rule="evenodd" clip-rule="evenodd" d="M500 552.176L503.72 556L520 538.822L516.28 535L500 552.176Z" fill="#FFAB81"/>
<path fill-rule="evenodd" clip-rule="evenodd" d="M618.075 550L617 555.204L639.925 560L641 554.796L618.075 550Z" fill="#FFAB81"/>
<path fill-rule="evenodd" clip-rule="evenodd" d="M462.371 470L461 475.022L483.629 481L485 475.978L462.371 470Z" fill="#FFAB81"/>
<path fill-rule="evenodd" clip-rule="evenodd" d="M309 541.178L312.72 545L329 527.824L325.28 524L309 541.178Z" fill="#FFAB81"/>
<path fill-rule="evenodd" clip-rule="evenodd" d="M570 455.188L573.674 459L587 444.81L583.326 441L570 455.188Z" fill="#FFAB81"/>
<path fill-rule="evenodd" clip-rule="evenodd" d="M341 642.964L345.768 644L350 621.038L345.23 620L341 642.964Z" fill="#FFAB81"/>
<path fill-rule="evenodd" clip-rule="evenodd" d="M234 569.962L238.768 571L243 548.036L238.23 547L234 569.962Z" fill="#FFAB81"/>
<path fill-rule="evenodd" clip-rule="evenodd" d="M459 616.465L458.661 611L435 612.535L435.337 618L459 616.465Z" fill="#FFAB81"/>
<path fill-rule="evenodd" clip-rule="evenodd" d="M759.221 605L763 601.237L745.781 585L742 588.765L759.221 605Z" fill="#FFAB81"/>
<path fill-rule="evenodd" clip-rule="evenodd" d="M563.505 579L566 574.429L544.497 564L542 568.571L563.505 579Z" fill="#FFAB81"/>
<path fill-rule="evenodd" clip-rule="evenodd" d="M694 656.319L693.183 651L670 654.681L670.815 660L694 656.319Z" fill="#FFAB81"/>
<path fill-rule="evenodd" clip-rule="evenodd" d="M542.833 643L547 639.223L541.841 624L537 625.787L542.833 643Z" fill="#FFAB81"/>
<path fill-rule="evenodd" clip-rule="evenodd" d="M565.464 530L570 527.481L559.536 506L555 508.519L565.464 530Z" fill="#FFAB81"/>
<path fill-rule="evenodd" clip-rule="evenodd" d="M388.463 682L393 679.481L382.537 658L378 660.521L388.463 682Z" fill="#FFAB81"/>
<path fill-rule="evenodd" clip-rule="evenodd" d="M627.464 630L632 627.481L621.536 606L617 608.519L627.464 630Z" fill="#FFAB81"/>
<path fill-rule="evenodd" clip-rule="evenodd" d="M576.417 624L576 629.212L585.568 633L586 627.423L576.417 624Z" fill="#FFAB81"/>
<path fill-rule="evenodd" clip-rule="evenodd" d="M525.628 310.048C527.259 316.47 523.373 322.999 516.951 324.628C510.53 326.259 504.001 322.375 502.372 315.953C500.741 309.529 504.625 303.002 511.049 301.371C517.47 299.742 523.997 303.624 525.628 310.048Z" fill="#FEC600"/>
<path fill-rule="evenodd" clip-rule="evenodd" d="M406.712 425.816L403.921 342L468.881 356.79L477.273 415.305C477.273 415.305 489.959 414.722 507 414.391C470.938 463.966 398.825 450.836 381 432.878C389.982 429.757 406.712 425.816 406.712 425.816Z" fill="#C28160"/>
<path fill-rule="evenodd" clip-rule="evenodd" d="M419 365.134C419 365.134 442.03 404.355 474 388.019L469.319 356L419 365.134Z" fill="#5A2E24"/>
<path fill-rule="evenodd" clip-rule="evenodd" d="M515.599 284.059C526.128 325.266 501.041 367.154 459.564 377.615C418.087 388.076 375.93 363.149 365.401 321.939C354.872 280.732 379.959 238.844 421.436 228.385C462.913 217.924 505.07 242.849 515.599 284.059Z" fill="#C28160"/>
<path fill-rule="evenodd" clip-rule="evenodd" d="M429.814 290.524C430.63 293.735 428.685 297 425.476 297.814C422.265 298.63 419.001 296.688 418.185 293.477C417.372 290.266 419.313 287.001 422.523 286.185C425.734 285.372 428.999 287.313 429.814 290.524Z" fill="#0C0F18"/>
<path fill-rule="evenodd" clip-rule="evenodd" d="M460.739 311C460.812 311 460.885 310.991 460.959 310.97C464.531 310.007 466.7 306.142 465.794 302.349C464.885 298.559 461.243 296.257 457.669 297.218C457.196 297.346 456.907 297.858 457.027 298.361C457.15 298.863 457.635 299.162 458.105 299.042C460.722 298.333 463.408 300.027 464.076 302.812C464.742 305.598 463.147 308.441 460.521 309.148C460.048 309.276 459.761 309.787 459.882 310.291C459.983 310.716 460.344 311 460.739 311Z" fill="#6B2F2B"/>
<path fill-rule="evenodd" clip-rule="evenodd" d="M489.815 275.524C490.628 278.735 488.687 282 485.476 282.814C482.265 283.63 479.001 281.688 478.185 278.477C477.372 275.266 479.314 272.001 482.524 271.185C485.735 270.371 488.999 272.314 489.815 275.524Z" fill="#0C0F18"/>
<path fill-rule="evenodd" clip-rule="evenodd" d="M469.038 347C469.26 347 469.483 346.924 469.664 346.771C470.068 346.431 470.114 345.835 469.768 345.439C469.626 345.277 455.322 329.332 428.622 339.246C428.124 339.431 427.874 339.976 428.063 340.464C428.251 340.954 428.803 341.2 429.301 341.015C454.698 331.586 467.765 346.052 468.311 346.673C468.499 346.888 468.768 347 469.038 347Z" fill="#6B2F2B"/>
<path fill-rule="evenodd" clip-rule="evenodd" d="M420 228C420 228 413.309 297.226 362.456 308C362.456 308 341.852 241.244 420 228Z" fill="#008282"/>
<path fill-rule="evenodd" clip-rule="evenodd" d="M420 228.482C420 228.482 454.037 268.151 497 250.452C497 250.452 471.309 205.655 420 228.482Z" fill="#008282"/>
<path fill-rule="evenodd" clip-rule="evenodd" d="M445.851 286C446.878 286 447.87 285.465 448.38 284.531C448.777 283.816 450.18 281.896 451.912 281.538C452.291 281.461 453.453 281.222 455.405 282.673C456.651 283.597 458.442 283.376 459.406 282.177C460.368 280.979 460.138 279.257 458.89 278.333C455.521 275.831 452.555 275.786 450.663 276.189C446.039 277.173 443.585 281.507 443.32 281.996C442.596 283.341 443.142 284.995 444.541 285.691C444.961 285.901 445.41 286 445.851 286Z" fill="#FFFFFE"/>
<path fill-rule="evenodd" clip-rule="evenodd" d="M371.829 317C372.282 317 372.742 316.889 373.17 316.657L401.518 301.313C402.891 300.568 403.401 298.854 402.659 297.482C401.917 296.111 400.203 295.598 398.829 296.34L370.482 311.687C369.109 312.429 368.599 314.144 369.341 315.517C369.853 316.461 370.825 317 371.829 317Z" fill="#FFFFFE"/>
<path fill-rule="evenodd" clip-rule="evenodd" d="M423.493 270.752C433.204 270.752 442.076 277.314 444.571 287.149C446.001 292.78 445.152 298.629 442.182 303.622C439.212 308.614 434.475 312.15 428.845 313.58C417.227 316.531 405.369 309.475 402.42 297.851C399.469 286.229 406.525 274.372 418.145 271.423C419.933 270.968 421.728 270.752 423.493 270.752ZM423.499 320C425.731 320 427.998 319.726 430.261 319.153C437.378 317.346 443.366 312.874 447.122 306.563C450.877 300.251 451.95 292.853 450.144 285.735C446.413 271.039 431.428 262.116 416.731 265.849C402.039 269.579 393.119 284.572 396.848 299.267C400.004 311.7 411.221 320 423.499 320Z" fill="#FFFFFE"/>
<path fill-rule="evenodd" clip-rule="evenodd" d="M483.497 254.75C493.21 254.75 502.083 261.314 504.579 271.147C507.53 282.771 500.474 294.626 488.85 297.578C477.231 300.529 465.373 293.473 462.422 281.849C459.471 270.228 466.527 258.37 478.149 255.421C479.937 254.967 481.732 254.75 483.497 254.75ZM483.503 304C485.736 304 488.003 303.724 490.266 303.151C504.962 299.42 513.881 284.429 510.152 269.733C506.422 255.037 491.434 246.12 476.734 249.848C462.039 253.577 453.117 268.568 456.849 283.265C460.005 295.698 471.224 304 483.503 304Z" fill="#FFFFFE"/>
<path fill-rule="evenodd" clip-rule="evenodd" d="M379 342.125C379 342.125 375.837 351.305 357.063 352.862C322.052 355.764 323.21 312.112 341.923 304.491C360.635 296.869 378.789 320.949 378.789 320.949L379 342.125Z" fill="#C28160"/>
<path fill-rule="evenodd" clip-rule="evenodd" d="M367.051 330C367.4 330 367.736 329.812 367.901 329.489C368.134 329.034 367.942 328.483 367.472 328.257L346.37 318.097C345.902 317.869 345.335 318.057 345.099 318.511C344.866 318.965 345.058 319.519 345.528 319.743L366.63 329.904C366.765 329.969 366.909 330 367.051 330Z" fill="#6B2F2B"/>
<path fill-rule="evenodd" clip-rule="evenodd" d="M368.629 350.049C370.258 356.47 366.374 362.997 359.951 364.628C353.529 366.259 347.003 362.373 345.372 355.951C343.741 349.53 347.627 343.001 354.048 341.372C360.469 339.741 366.998 343.625 368.629 350.049Z" fill="#FEC600"/>
<path fill-rule="evenodd" clip-rule="evenodd" d="M447 232C448.083 236.884 451.973 247.304 454.642 249.833C456.831 251.908 482.253 258.302 495.263 249.403C508.272 240.504 509.999 233.714 509.999 233.714C510.179 232.311 482.276 237.672 447 232Z" fill="#543525"/>
<path fill-rule="evenodd" clip-rule="evenodd" d="M422 245.579C418.385 242.386 409.41 236.471 405.85 236.011C402.926 235.635 378.958 245.058 373.535 259.368C368.112 273.678 370.543 279.949 370.543 279.949C371.189 281.143 390.537 261.151 422 245.579Z" fill="#543525"/>
<path fill-rule="evenodd" clip-rule="evenodd" d="M255 1029.93C259.678 965.487 258.121 857.487 362.495 765.639C362.495 765.639 334.468 752.404 343.236 742.492C351.625 733.009 399.725 742.631 452.479 742.492C498.188 742.372 548.942 730.6 561.412 745.659C569.447 755.359 547.933 765.639 547.933 765.639C615.294 814.939 665.287 966.197 676 1029.93L472.984 1029.97L454.42 950.74L456.64 1030L255 1029.93Z" fill="#15CAB8"/>
<path fill-rule="evenodd" clip-rule="evenodd" d="M288.612 869C297.074 869 323.515 859.318 380.86 765.443C381.133 764.999 380.994 764.414 380.549 764.143C380.106 763.863 379.526 764.007 379.254 764.454C310.045 877.751 286.633 866.845 286.399 866.726C285.948 866.48 285.375 866.643 285.123 867.089C284.872 867.537 285.015 868.101 285.458 868.364C285.641 868.472 286.64 869 288.612 869Z" fill="#EEA22D"/>
<path fill-rule="evenodd" clip-rule="evenodd" d="M610.666 873C619.644 873 625.15 870.2 625.498 870.017C625.956 869.776 626.133 869.211 625.892 868.754C625.651 868.299 625.078 868.12 624.62 868.361C624.496 868.425 611.902 874.782 593.755 867.846C574.333 860.426 545.569 836.492 518.827 764.613C518.646 764.127 518.104 763.878 517.616 764.059C517.129 764.237 516.879 764.776 517.058 765.259C544.073 837.867 573.352 862.09 593.158 869.624C599.843 872.167 605.771 873 610.666 873Z" fill="#EEA22D"/>
<path fill-rule="evenodd" clip-rule="evenodd" d="M448.69 863C448.72 863 448.752 862.998 448.784 862.994C454.689 862.405 459.55 859.553 463.231 854.518C480.227 831.274 467.383 769.009 466.828 766.369C466.723 765.86 466.226 765.543 465.718 765.644C465.212 765.749 464.888 766.248 464.995 766.753C465.128 767.393 478.221 830.843 461.718 853.409C458.553 857.74 454.442 860.296 449.491 861.02L435.865 764.802C435.792 764.291 435.316 763.95 434.806 764.006C434.293 764.079 433.936 764.554 434.01 765.066L447.762 862.195C447.828 862.662 448.229 863 448.69 863Z" fill="#EEA22D"/>
<path fill-rule="evenodd" clip-rule="evenodd" d="M367.941 766H543.059C543.578 766 544 765.552 544 765C544 764.446 543.578 764 543.059 764H367.941C367.42 764 367 764.446 367 765C367 765.552 367.42 766 367.941 766Z" fill="#EEA22D"/>
<path fill-rule="evenodd" clip-rule="evenodd" d="M455.018 953C455.12 953 455.223 952.982 455.321 952.945L471.363 946.999C471.853 946.817 472.116 946.235 471.951 945.697C471.784 945.157 471.252 944.876 470.759 945.053L454.988 950.899L435.184 945.036C434.683 944.89 434.167 945.211 434.033 945.757C433.896 946.305 434.193 946.868 434.692 947.016L454.773 952.963C454.853 952.988 454.936 953 455.018 953Z" fill="#EEA22D"/>
<path fill-rule="evenodd" clip-rule="evenodd" d="M148 442.243C124.091 426.403 93.2102 427.62 93.2102 427.62C93.2102 427.62 49.4765 415.194 46.7186 422.078C40.7798 436.907 73.6022 456 73.6022 456L148 442.243Z" fill="#5A2E24"/>
<path fill-rule="evenodd" clip-rule="evenodd" d="M102.181 475.229C60.9428 469.401 40.3889 449.436 39.0446 434.456C38.3791 427.028 45.3321 422.869 48.6143 431.425C51.43 438.762 61.6443 448.054 62.7725 448.084C57.727 442.56 51.356 434.597 50.1804 428.523C48.1819 418.197 51.0147 408.013 58.0474 406.161C60.8271 405.429 62.0615 408.644 62.0615 408.644C62.0615 408.644 63.9803 399.901 69.845 401.116C77.7688 402.759 76.4188 413.74 76.4188 413.74C76.4188 413.74 76.2311 404.595 83.5899 406.172C88.8118 407.294 88.9236 415.876 90.5391 424.225C92.5376 434.55 114.908 439.618 119.309 438.484C123.712 437.349 142.225 435.165 152.794 447.423C172.902 470.742 202 594.245 202 594.245L130.395 613L102.181 475.229Z" fill="#C28160"/>
<path fill-rule="evenodd" clip-rule="evenodd" d="M73.07 444C73.3729 444 73.6703 443.85 73.8506 443.574C74.1294 443.139 74.0067 442.559 73.5773 442.276C67.4347 438.246 62.6618 430.865 61.2344 426.91C59.991 423.464 62.0503 412.196 62.948 408.143C63.0595 407.639 62.7454 407.136 62.2436 407.023C61.7381 406.909 61.2455 407.23 61.134 407.734C60.9983 408.35 57.8053 422.888 59.4892 427.552C61.2567 432.454 66.4403 439.833 72.5644 443.85C72.7205 443.951 72.8952 444 73.07 444Z" fill="#6B2F2B"/>
<path fill-rule="evenodd" clip-rule="evenodd" d="M89.0825 442C89.383 442 89.6763 441.847 89.8522 441.566C90.1271 441.122 90.008 440.529 89.5828 440.242C83.5261 436.134 78.8218 428.609 77.4125 424.578C75.9446 420.368 77.7149 413.272 77.7332 413.201C77.8615 412.69 77.5701 412.166 77.0808 412.032C76.5897 411.897 76.0912 412.201 75.9611 412.711C75.8823 413.025 74.0258 420.456 75.6917 425.232C77.4363 430.229 82.5474 437.752 88.584 441.845C88.738 441.95 88.9121 442 89.0825 442Z" fill="#6B2F2B"/>
<path fill-rule="evenodd" clip-rule="evenodd" d="M100.731 521.011C100.731 521.011 129.457 675.407 186.02 677.94C273.85 681.871 173.254 491.681 173.254 491.681C173.254 491.681 180.239 477.684 176.787 475.251C162.696 465.316 106.16 490.589 89.8743 505.848C85.2095 510.219 100.731 521.011 100.731 521.011Z" fill="#FF8548"/>
<path fill-rule="evenodd" clip-rule="evenodd" d="M164.006 494C164.059 494 164.113 493.996 164.168 493.987C167.255 493.431 169.071 493.239 169.087 493.237C169.641 493.178 170.048 492.632 169.995 492.017C169.943 491.401 169.455 490.937 168.897 491.007C168.821 491.016 167.005 491.211 163.847 491.777C163.297 491.875 162.924 492.449 163.013 493.06C163.092 493.61 163.521 494 164.006 494Z" fill="#FFAB81"/>
<path fill-rule="evenodd" clip-rule="evenodd" d="M146.463 498.061C146.549 498.061 146.637 498.05 146.725 498.025C149.549 497.213 152.426 496.475 155.272 495.832C155.777 495.719 156.091 495.222 155.977 494.723C155.863 494.224 155.362 493.905 154.86 494.026C151.975 494.676 149.063 495.422 146.203 496.243C145.708 496.386 145.423 496.9 145.566 497.393C145.684 497.797 146.058 498.061 146.463 498.061ZM129.73 503.963C129.853 503.963 129.978 503.939 130.098 503.889C132.756 502.761 135.521 501.692 138.319 500.707C138.804 500.534 139.06 500.006 138.887 499.524C138.715 499.04 138.181 498.788 137.695 498.958C134.859 499.956 132.056 501.041 129.364 502.183C128.889 502.383 128.669 502.928 128.871 503.399C129.022 503.752 129.369 503.963 129.73 503.963ZM113.934 512C114.101 512 114.269 511.957 114.42 511.865C116.878 510.376 119.467 508.94 122.112 507.598C122.572 507.364 122.753 506.806 122.52 506.35C122.284 505.895 121.72 505.716 121.262 505.945C118.576 507.31 115.946 508.768 113.449 510.281C113.008 510.548 112.868 511.119 113.137 511.555C113.312 511.842 113.621 512 113.934 512Z" fill="#FFAB81"/>
<path fill-rule="evenodd" clip-rule="evenodd" d="M103.007 520C103.23 520 103.453 519.929 103.638 519.782C104.938 518.748 106.256 517.751 107.588 516.79C108.037 516.467 108.134 515.847 107.806 515.405C107.48 514.964 106.852 514.868 106.399 515.191C105.043 516.17 103.699 517.187 102.375 518.239C101.942 518.583 101.874 519.207 102.224 519.631C102.423 519.875 102.713 520 103.007 520Z" fill="#FFAB81"/>
<path fill-rule="evenodd" clip-rule="evenodd" d="M151 522.437L146.907 519L132 537.563L136.093 541L151 522.437Z" fill="#FFAB81"/>
<path fill-rule="evenodd" clip-rule="evenodd" d="M136 608.373L138.252 613L160 603.629L157.748 599L136 608.373Z" fill="#FFAB81"/>
<path fill-rule="evenodd" clip-rule="evenodd" d="M191.453 576L196 573.176L183.547 553L179 555.824L191.453 576Z" fill="#FFAB81"/>
<path fill-rule="evenodd" clip-rule="evenodd" d="M180.753 643L179 647.708L201.247 655L203 650.292L180.753 643Z" fill="#FFAB81"/>
<path fill-rule="evenodd" clip-rule="evenodd" d="M376.941 429.08C378.432 428.584 380.044 429.379 380.543 430.856C380.799 431.61 404.772 500.943 449.914 509.678C451.475 505.082 455.849 501.769 461.013 501.769C465.8 501.769 469.913 504.619 471.73 508.7C512.128 495.386 510.299 415.772 510.273 414.902C510.229 413.345 511.464 412.045 513.035 412.002C514.577 411.944 515.914 413.179 515.962 414.736C516.075 418.51 517.957 500.964 472.68 514.379C472.17 520.327 467.145 525 461.013 525C455.221 525 450.424 520.833 449.476 515.359C400.754 506.688 376.243 435.886 375.148 432.65C374.649 431.173 375.452 429.575 376.941 429.08Z" fill="#FEC600"/>
<path fill-rule="evenodd" clip-rule="evenodd" d="M157.459 328.465C142.554 311.079 126.689 323.573 109.798 327.167C93.7167 328.647 83.7866 307.691 97.7144 296.956C111.795 282.387 117.273 292.568 130.859 295.039C146.134 294.408 157.652 260.125 140.119 256.01C103.524 233.915 51.0499 267.465 52.0842 309.064C49.7758 349.877 95.4117 377.935 129.507 358.366C137.524 368.839 147.405 364.669 155.647 355.727C165.87 347.182 168.042 337.097 157.459 328.465ZM189.416 359.843C178.354 356.777 160.279 374.437 159.481 385.377C159.796 395.314 178.956 417.717 191.438 410.643C203.501 403.802 222.219 385.853 205.132 372.032C199.615 366.643 196.515 362.037 189.416 359.843Z" fill="#44A6E9"/>
<path fill-rule="evenodd" clip-rule="evenodd" d="M690.346 279.096C678.569 298.68 695.323 309.784 703.989 324.659C710.406 339.43 693.702 355.422 679.212 345.597C661.053 336.832 668.963 328.447 667.06 314.798C664.036 302.5 633.288 301.528 629.475 310.809C612.152 353.896 663.098 400.299 704.89 385.026C744.176 374.393 756.45 322.342 727.324 296.186C734.718 285.303 727.695 277.25 716.673 272.249C705.41 265.248 695.202 266.359 690.346 279.096ZM710.027 238.962C710.582 250.407 732.907 261.984 743.493 259.303C752.786 255.883 767.977 230.695 757.398 221.091C747.171 211.81 724.371 199.714 716.641 220.245C713.27 227.165 709.885 231.549 710.027 238.962Z" fill="#44A6E9"/>
<rect x="1084" y="679" width="154" height="50" rx="10" fill="#FF8548"/>
<path d="M1124.47 710.225C1123.74 710.225 1123.08 710.1 1122.47 709.85C1121.86 709.595 1121.33 709.225 1120.88 708.74C1120.43 708.255 1120.08 707.665 1119.83 706.97C1119.58 706.275 1119.45 705.485 1119.45 704.6C1119.45 703.435 1119.66 702.435 1120.09 701.6C1120.51 700.76 1121.1 700.115 1121.86 699.665C1122.61 699.21 1123.48 698.982 1124.47 698.982C1125.74 698.982 1126.75 699.277 1127.51 699.867C1128.27 700.457 1128.78 701.272 1129.06 702.312L1127.47 702.597C1127.25 701.952 1126.89 701.437 1126.4 701.052C1125.91 700.667 1125.3 700.472 1124.56 700.467C1123.79 700.462 1123.16 700.632 1122.65 700.977C1122.14 701.322 1121.76 701.807 1121.51 702.432C1121.25 703.052 1121.12 703.775 1121.12 704.6C1121.11 705.425 1121.24 706.147 1121.49 706.767C1121.75 707.382 1122.13 707.862 1122.64 708.207C1123.15 708.552 1123.79 708.727 1124.56 708.732C1125.17 708.742 1125.7 708.63 1126.14 708.395C1126.59 708.155 1126.94 707.805 1127.2 707.345C1127.46 706.885 1127.63 706.32 1127.7 705.65H1125.6V704.39H1129.37C1129.38 704.48 1129.38 704.6 1129.39 704.75C1129.39 704.895 1129.4 704.987 1129.4 705.027C1129.4 706.027 1129.2 706.92 1128.82 707.705C1128.43 708.49 1127.87 709.107 1127.14 709.557C1126.4 710.002 1125.51 710.225 1124.47 710.225ZM1134.41 710.225C1133.6 710.225 1132.89 710.043 1132.3 709.677C1131.7 709.312 1131.24 708.81 1130.92 708.17C1130.6 707.525 1130.44 706.782 1130.44 705.942C1130.44 705.097 1130.6 704.355 1130.93 703.715C1131.26 703.07 1131.73 702.57 1132.32 702.215C1132.92 701.855 1133.61 701.675 1134.41 701.675C1135.22 701.675 1135.92 701.857 1136.51 702.222C1137.11 702.587 1137.57 703.09 1137.89 703.73C1138.22 704.37 1138.38 705.107 1138.38 705.942C1138.38 706.787 1138.22 707.532 1137.89 708.177C1137.56 708.817 1137.1 709.32 1136.51 709.685C1135.91 710.045 1135.21 710.225 1134.41 710.225ZM1134.41 708.747C1135.18 708.747 1135.76 708.487 1136.14 707.967C1136.52 707.442 1136.72 706.767 1136.72 705.942C1136.72 705.097 1136.52 704.422 1136.13 703.917C1135.75 703.407 1135.17 703.152 1134.41 703.152C1133.88 703.152 1133.45 703.272 1133.11 703.512C1132.77 703.747 1132.52 704.075 1132.35 704.495C1132.19 704.91 1132.1 705.392 1132.1 705.942C1132.1 706.792 1132.3 707.472 1132.69 707.982C1133.08 708.492 1133.65 708.747 1134.41 708.747ZM1147.67 710C1147.16 710.1 1146.66 710.143 1146.17 710.128C1145.68 710.113 1145.24 710.017 1144.86 709.842C1144.47 709.667 1144.18 709.392 1143.99 709.017C1143.81 708.682 1143.72 708.342 1143.7 707.997C1143.69 707.647 1143.69 707.252 1143.69 706.812V699.65H1145.26V706.737C1145.26 707.062 1145.26 707.345 1145.27 707.585C1145.28 707.825 1145.33 708.027 1145.43 708.192C1145.61 708.502 1145.89 708.68 1146.28 708.725C1146.68 708.765 1147.14 708.747 1147.67 708.672V710ZM1142.13 703.16V701.9H1147.67V703.16H1142.13ZM1152.51 710.225C1151.7 710.225 1151 710.043 1150.41 709.677C1149.81 709.312 1149.35 708.81 1149.03 708.17C1148.71 707.525 1148.55 706.782 1148.55 705.942C1148.55 705.097 1148.71 704.355 1149.04 703.715C1149.37 703.07 1149.83 702.57 1150.43 702.215C1151.02 701.855 1151.72 701.675 1152.51 701.675C1153.32 701.675 1154.03 701.857 1154.62 702.222C1155.22 702.587 1155.68 703.09 1156 703.73C1156.33 704.37 1156.49 705.107 1156.49 705.942C1156.49 706.787 1156.32 707.532 1155.99 708.177C1155.67 708.817 1155.21 709.32 1154.61 709.685C1154.02 710.045 1153.32 710.225 1152.51 710.225ZM1152.51 708.747C1153.29 708.747 1153.87 708.487 1154.25 707.967C1154.63 707.442 1154.82 706.767 1154.82 705.942C1154.82 705.097 1154.63 704.422 1154.24 703.917C1153.85 703.407 1153.28 703.152 1152.51 703.152C1151.99 703.152 1151.56 703.272 1151.22 703.512C1150.88 703.747 1150.62 704.075 1150.46 704.495C1150.29 704.91 1150.21 705.392 1150.21 705.942C1150.21 706.792 1150.41 707.472 1150.8 707.982C1151.19 708.492 1151.76 708.747 1152.51 708.747ZM1161.14 710V699.2H1162.71V703.857H1168.11V699.2H1169.68V710H1168.11V705.335H1162.71V710H1161.14ZM1175.31 710.225C1174.5 710.225 1173.79 710.043 1173.2 709.677C1172.6 709.312 1172.14 708.81 1171.82 708.17C1171.5 707.525 1171.34 706.782 1171.34 705.942C1171.34 705.097 1171.5 704.355 1171.83 703.715C1172.16 703.07 1172.63 702.57 1173.22 702.215C1173.82 701.855 1174.51 701.675 1175.31 701.675C1176.12 701.675 1176.82 701.857 1177.41 702.222C1178.01 702.587 1178.47 703.09 1178.79 703.73C1179.12 704.37 1179.28 705.107 1179.28 705.942C1179.28 706.787 1179.12 707.532 1178.79 708.177C1178.46 708.817 1178 709.32 1177.41 709.685C1176.81 710.045 1176.11 710.225 1175.31 710.225ZM1175.31 708.747C1176.08 708.747 1176.66 708.487 1177.04 707.967C1177.42 707.442 1177.62 706.767 1177.62 705.942C1177.62 705.097 1177.42 704.422 1177.03 703.917C1176.65 703.407 1176.07 703.152 1175.31 703.152C1174.78 703.152 1174.35 703.272 1174.01 703.512C1173.67 703.747 1173.42 704.075 1173.25 704.495C1173.09 704.91 1173 705.392 1173 705.942C1173 706.792 1173.2 707.472 1173.59 707.982C1173.98 708.492 1174.55 708.747 1175.31 708.747ZM1190.63 710L1190.64 704.952C1190.64 704.367 1190.49 703.912 1190.19 703.587C1189.89 703.257 1189.5 703.092 1189.01 703.092C1188.71 703.092 1188.43 703.162 1188.18 703.302C1187.94 703.437 1187.74 703.642 1187.58 703.917C1187.43 704.187 1187.36 704.527 1187.36 704.937L1186.6 704.555C1186.59 703.985 1186.71 703.485 1186.96 703.055C1187.21 702.625 1187.56 702.292 1187.99 702.057C1188.43 701.817 1188.92 701.698 1189.46 701.698C1190.33 701.698 1191.01 701.96 1191.49 702.485C1191.97 703.01 1192.21 703.707 1192.21 704.577L1192.2 710H1190.63ZM1180.92 710V701.9H1182.32V704.24H1182.5V710H1180.92ZM1185.78 710L1185.79 704.982C1185.79 704.392 1185.64 703.93 1185.34 703.595C1185.04 703.26 1184.65 703.092 1184.15 703.092C1183.65 703.092 1183.25 703.262 1182.95 703.602C1182.65 703.942 1182.5 704.387 1182.5 704.937L1181.75 704.457C1181.75 703.927 1181.87 703.455 1182.13 703.04C1182.38 702.625 1182.73 702.297 1183.16 702.057C1183.6 701.817 1184.09 701.698 1184.64 701.698C1185.22 701.698 1185.71 701.82 1186.11 702.065C1186.52 702.305 1186.82 702.642 1187.03 703.077C1187.25 703.512 1187.36 704.017 1187.36 704.592L1187.35 710H1185.78ZM1197.65 710.225C1196.84 710.225 1196.13 710.05 1195.52 709.7C1194.92 709.345 1194.45 708.852 1194.11 708.222C1193.77 707.587 1193.6 706.852 1193.6 706.017C1193.6 705.132 1193.77 704.365 1194.1 703.715C1194.43 703.065 1194.9 702.562 1195.49 702.207C1196.09 701.852 1196.78 701.675 1197.57 701.675C1198.4 701.675 1199.1 701.867 1199.68 702.253C1200.26 702.632 1200.69 703.175 1200.98 703.88C1201.27 704.585 1201.38 705.422 1201.32 706.392H1199.75V705.822C1199.74 704.882 1199.56 704.187 1199.21 703.737C1198.87 703.287 1198.34 703.062 1197.63 703.062C1196.85 703.062 1196.26 703.31 1195.86 703.805C1195.47 704.3 1195.27 705.015 1195.27 705.95C1195.27 706.84 1195.47 707.53 1195.86 708.02C1196.26 708.505 1196.83 708.747 1197.57 708.747C1198.06 708.747 1198.48 708.637 1198.84 708.417C1199.2 708.192 1199.48 707.872 1199.68 707.457L1201.22 707.945C1200.9 708.67 1200.42 709.232 1199.78 709.632C1199.14 710.027 1198.43 710.225 1197.65 710.225ZM1194.76 706.392V705.17H1200.54V706.392H1194.76Z" fill="white"/>
<path d="M965.19 575.48C963.505 575.48 961.985 575.187 960.63 574.6C959.286 574.013 958.177 573.176 957.302 572.088C956.438 570.989 955.889 569.688 955.654 568.184L959.654 567.576C959.995 568.941 960.694 569.997 961.75 570.744C962.817 571.491 964.043 571.864 965.43 571.864C966.251 571.864 967.025 571.736 967.75 571.48C968.475 571.224 969.062 570.851 969.51 570.36C969.969 569.869 970.198 569.267 970.198 568.552C970.198 568.232 970.145 567.939 970.038 567.672C969.931 567.395 969.771 567.149 969.558 566.936C969.355 566.723 969.089 566.531 968.758 566.36C968.438 566.179 968.065 566.024 967.638 565.896L961.686 564.136C961.174 563.987 960.619 563.789 960.022 563.544C959.435 563.288 958.875 562.941 958.342 562.504C957.819 562.056 957.387 561.491 957.046 560.808C956.715 560.115 956.55 559.261 956.55 558.248C956.55 556.765 956.923 555.523 957.67 554.52C958.427 553.507 959.441 552.749 960.71 552.248C961.99 551.747 963.409 551.501 964.966 551.512C966.545 551.523 967.953 551.795 969.19 552.328C970.427 552.851 971.462 553.613 972.294 554.616C973.126 555.619 973.713 556.829 974.054 558.248L969.91 558.968C969.739 558.157 969.409 557.469 968.918 556.904C968.438 556.328 967.846 555.891 967.142 555.592C966.449 555.293 965.707 555.133 964.918 555.112C964.15 555.101 963.435 555.219 962.774 555.464C962.123 555.699 961.595 556.04 961.19 556.488C960.795 556.936 960.598 557.459 960.598 558.056C960.598 558.621 960.769 559.085 961.11 559.448C961.451 559.8 961.873 560.083 962.374 560.296C962.886 560.499 963.403 560.669 963.926 560.808L968.054 561.96C968.619 562.109 969.254 562.312 969.958 562.568C970.662 562.824 971.339 563.181 971.99 563.64C972.641 564.099 973.174 564.701 973.59 565.448C974.017 566.195 974.23 567.144 974.23 568.296C974.23 569.491 973.979 570.541 973.478 571.448C972.987 572.344 972.321 573.091 971.478 573.688C970.635 574.285 969.67 574.733 968.582 575.032C967.505 575.331 966.374 575.48 965.19 575.48ZM985.325 575.48C983.597 575.48 982.088 575.091 980.797 574.312C979.506 573.533 978.504 572.461 977.789 571.096C977.085 569.72 976.733 568.141 976.733 566.36C976.733 564.547 977.096 562.957 977.821 561.592C978.546 560.227 979.554 559.16 980.845 558.392C982.136 557.624 983.629 557.24 985.325 557.24C987.064 557.24 988.578 557.629 989.869 558.408C991.16 559.187 992.162 560.264 992.877 561.64C993.592 563.005 993.949 564.579 993.949 566.36C993.949 568.152 993.586 569.736 992.861 571.112C992.146 572.477 991.144 573.549 989.853 574.328C988.562 575.096 987.053 575.48 985.325 575.48ZM985.325 571.864C986.861 571.864 988.002 571.352 988.749 570.328C989.496 569.304 989.869 567.981 989.869 566.36C989.869 564.685 989.49 563.352 988.733 562.36C987.976 561.357 986.84 560.856 985.325 560.856C984.29 560.856 983.437 561.091 982.765 561.56C982.104 562.019 981.613 562.664 981.293 563.496C980.973 564.317 980.813 565.272 980.813 566.36C980.813 568.035 981.192 569.373 981.949 570.376C982.717 571.368 983.842 571.864 985.325 571.864ZM997.474 575V557.72H1000.88V561.928L1000.47 561.384C1000.68 560.808 1000.96 560.285 1001.31 559.816C1001.68 559.336 1002.11 558.941 1002.61 558.632C1003.04 558.344 1003.51 558.12 1004.02 557.96C1004.54 557.789 1005.07 557.688 1005.62 557.656C1006.16 557.613 1006.69 557.635 1007.2 557.72V561.32C1006.69 561.171 1006.1 561.123 1005.43 561.176C1004.77 561.229 1004.17 561.416 1003.63 561.736C1003.1 562.024 1002.66 562.392 1002.32 562.84C1001.99 563.288 1001.75 563.8 1001.59 564.376C1001.43 564.941 1001.35 565.555 1001.35 566.216V575H997.474ZM1010.26 575V557.72H1013.66V561.928L1013.25 561.384C1013.46 560.808 1013.74 560.285 1014.1 559.816C1014.46 559.336 1014.89 558.941 1015.39 558.632C1015.82 558.344 1016.29 558.12 1016.8 557.96C1017.32 557.789 1017.86 557.688 1018.4 557.656C1018.94 557.613 1019.47 557.635 1019.98 557.72V561.32C1019.47 561.171 1018.88 561.123 1018.21 561.176C1017.55 561.229 1016.95 561.416 1016.42 561.736C1015.88 562.024 1015.44 562.392 1015.1 562.84C1014.77 563.288 1014.53 563.8 1014.37 564.376C1014.21 564.941 1014.13 565.555 1014.13 566.216V575H1010.26ZM1024.78 582.68L1028.11 573.544L1028.17 576.232L1020.63 557.72H1024.65L1029.99 571.416H1028.97L1034.17 557.72H1038.03L1028.39 582.68H1024.78ZM1037.53 579.08L1037.75 577.416C1038.24 577.459 1038.63 577.373 1038.92 577.16C1039.21 576.957 1039.4 576.664 1039.5 576.28C1039.6 575.907 1039.63 575.48 1039.58 575H1037.53V570.888H1041.48V575.16C1041.48 576.557 1041.15 577.613 1040.49 578.328C1039.83 579.043 1038.84 579.293 1037.53 579.08ZM1059.57 575V565.56L1051.73 551.96H1056.23L1061.53 561.144L1066.81 551.96H1071.3L1063.48 565.56V575H1059.57ZM1078.61 575.48C1076.88 575.48 1075.37 575.091 1074.08 574.312C1072.79 573.533 1071.79 572.461 1071.07 571.096C1070.37 569.72 1070.01 568.141 1070.01 566.36C1070.01 564.547 1070.38 562.957 1071.1 561.592C1071.83 560.227 1072.84 559.16 1074.13 558.392C1075.42 557.624 1076.91 557.24 1078.61 557.24C1080.35 557.24 1081.86 557.629 1083.15 558.408C1084.44 559.187 1085.44 560.264 1086.16 561.64C1086.87 563.005 1087.23 564.579 1087.23 566.36C1087.23 568.152 1086.87 569.736 1086.14 571.112C1085.43 572.477 1084.43 573.549 1083.13 574.328C1081.84 575.096 1080.33 575.48 1078.61 575.48ZM1078.61 571.864C1080.14 571.864 1081.28 571.352 1082.03 570.328C1082.78 569.304 1083.15 567.981 1083.15 566.36C1083.15 564.685 1082.77 563.352 1082.01 562.36C1081.26 561.357 1080.12 560.856 1078.61 560.856C1077.57 560.856 1076.72 561.091 1076.05 561.56C1075.39 562.019 1074.89 562.664 1074.57 563.496C1074.25 564.317 1074.09 565.272 1074.09 566.36C1074.09 568.035 1074.47 569.373 1075.23 570.376C1076 571.368 1077.12 571.864 1078.61 571.864ZM1097.24 575.496C1095.96 575.496 1094.9 575.283 1094.07 574.856C1093.24 574.429 1092.57 573.885 1092.08 573.224C1091.59 572.563 1091.23 571.859 1091 571.112C1090.76 570.365 1090.61 569.661 1090.53 569C1090.47 568.328 1090.44 567.784 1090.44 567.368V557.72H1094.34V566.04C1094.34 566.573 1094.38 567.176 1094.45 567.848C1094.53 568.509 1094.7 569.149 1094.96 569.768C1095.24 570.376 1095.65 570.877 1096.18 571.272C1096.72 571.667 1097.45 571.864 1098.37 571.864C1098.86 571.864 1099.35 571.784 1099.83 571.624C1100.31 571.464 1100.74 571.192 1101.12 570.808C1101.52 570.413 1101.83 569.875 1102.07 569.192C1102.3 568.509 1102.42 567.645 1102.42 566.6L1104.71 567.576C1104.71 569.048 1104.42 570.381 1103.84 571.576C1103.28 572.771 1102.44 573.725 1101.33 574.44C1100.22 575.144 1098.86 575.496 1097.24 575.496ZM1102.88 575V569.64H1102.42V557.72H1106.29V575H1102.88ZM1115.59 575L1122.86 551.96H1128.51L1135.77 575H1131.8L1125.21 554.328H1126.07L1119.56 575H1115.59ZM1119.64 570.008V566.408H1131.74V570.008H1119.64ZM1138.66 575V557.72H1142.07V561.928L1141.65 561.384C1141.87 560.808 1142.15 560.285 1142.5 559.816C1142.86 559.336 1143.3 558.941 1143.8 558.632C1144.22 558.344 1144.69 558.12 1145.21 557.96C1145.73 557.789 1146.26 557.688 1146.81 557.656C1147.35 557.613 1147.88 557.635 1148.39 557.72V561.32C1147.88 561.171 1147.29 561.123 1146.61 561.176C1145.95 561.229 1145.36 561.416 1144.82 561.736C1144.29 562.024 1143.85 562.392 1143.51 562.84C1143.18 563.288 1142.93 563.8 1142.77 564.376C1142.61 564.941 1142.53 565.555 1142.53 566.216V575H1138.66ZM1158.99 575.48C1157.24 575.48 1155.7 575.101 1154.38 574.344C1153.06 573.587 1152.02 572.536 1151.27 571.192C1150.54 569.848 1150.17 568.301 1150.17 566.552C1150.17 564.664 1150.53 563.027 1151.26 561.64C1151.98 560.243 1152.99 559.16 1154.28 558.392C1155.57 557.624 1157.07 557.24 1158.76 557.24C1160.55 557.24 1162.07 557.661 1163.32 558.504C1164.58 559.336 1165.51 560.515 1166.12 562.04C1166.73 563.565 1166.96 565.363 1166.81 567.432H1162.99V566.024C1162.98 564.147 1162.65 562.776 1161.99 561.912C1161.34 561.048 1160.32 560.616 1158.92 560.616C1157.34 560.616 1156.17 561.107 1155.4 562.088C1154.63 563.059 1154.25 564.483 1154.25 566.36C1154.25 568.109 1154.63 569.464 1155.4 570.424C1156.17 571.384 1157.29 571.864 1158.76 571.864C1159.71 571.864 1160.53 571.656 1161.21 571.24C1161.9 570.813 1162.44 570.2 1162.81 569.4L1166.62 570.552C1165.96 572.109 1164.93 573.32 1163.55 574.184C1162.17 575.048 1160.65 575.48 1158.99 575.48ZM1153.03 567.432V564.52H1164.92V567.432H1153.03ZM1176.79 575V551.96H1180.69L1191.38 568.2V551.96H1195.28V575H1191.38L1180.69 558.76V575H1176.79ZM1207.39 575.48C1205.66 575.48 1204.15 575.091 1202.86 574.312C1201.57 573.533 1200.57 572.461 1199.85 571.096C1199.15 569.72 1198.8 568.141 1198.8 566.36C1198.8 564.547 1199.16 562.957 1199.88 561.592C1200.61 560.227 1201.62 559.16 1202.91 558.392C1204.2 557.624 1205.69 557.24 1207.39 557.24C1209.13 557.24 1210.64 557.629 1211.93 558.408C1213.22 559.187 1214.22 560.264 1214.94 561.64C1215.65 563.005 1216.01 564.579 1216.01 566.36C1216.01 568.152 1215.65 569.736 1214.92 571.112C1214.21 572.477 1213.21 573.549 1211.92 574.328C1210.62 575.096 1209.12 575.48 1207.39 575.48ZM1207.39 571.864C1208.92 571.864 1210.06 571.352 1210.81 570.328C1211.56 569.304 1211.93 567.981 1211.93 566.36C1211.93 564.685 1211.55 563.352 1210.8 562.36C1210.04 561.357 1208.9 560.856 1207.39 560.856C1206.35 560.856 1205.5 561.091 1204.83 561.56C1204.17 562.019 1203.68 562.664 1203.36 563.496C1203.04 564.317 1202.88 565.272 1202.88 566.36C1202.88 568.035 1203.25 569.373 1204.01 570.376C1204.78 571.368 1205.9 571.864 1207.39 571.864ZM1229.66 575C1228.52 575.213 1227.4 575.304 1226.3 575.272C1225.22 575.251 1224.24 575.053 1223.38 574.68C1222.51 574.296 1221.86 573.693 1221.41 572.872C1221.01 572.125 1220.81 571.363 1220.78 570.584C1220.76 569.805 1220.75 568.925 1220.75 567.944V552.92H1224.59V567.72C1224.59 568.413 1224.6 569.021 1224.61 569.544C1224.63 570.067 1224.74 570.493 1224.94 570.824C1225.33 571.464 1225.94 571.821 1226.78 571.896C1227.63 571.971 1228.59 571.928 1229.66 571.768V575ZM1217.62 560.744V557.72H1229.66V560.744H1217.62ZM1238.19 575L1245.45 551.96H1251.1L1258.36 575H1254.39L1247.8 554.328H1248.67L1242.15 575H1238.19ZM1242.23 570.008V566.408H1254.33V570.008H1242.23ZM1261.58 575V551.48H1265.43V575H1261.58ZM1270.54 575V551.48H1274.4V575H1270.54ZM1286.83 575.48C1285.1 575.48 1283.59 575.091 1282.3 574.312C1281.01 573.533 1280 572.461 1279.29 571.096C1278.59 569.72 1278.23 568.141 1278.23 566.36C1278.23 564.547 1278.6 562.957 1279.32 561.592C1280.05 560.227 1281.05 559.16 1282.35 558.392C1283.64 557.624 1285.13 557.24 1286.83 557.24C1288.56 557.24 1290.08 557.629 1291.37 558.408C1292.66 559.187 1293.66 560.264 1294.38 561.64C1295.09 563.005 1295.45 564.579 1295.45 566.36C1295.45 568.152 1295.09 569.736 1294.36 571.112C1293.65 572.477 1292.64 573.549 1291.35 574.328C1290.06 575.096 1288.55 575.48 1286.83 575.48ZM1286.83 571.864C1288.36 571.864 1289.5 571.352 1290.25 570.328C1291 569.304 1291.37 567.981 1291.37 566.36C1291.37 564.685 1290.99 563.352 1290.23 562.36C1289.48 561.357 1288.34 560.856 1286.83 560.856C1285.79 560.856 1284.94 561.091 1284.27 561.56C1283.6 562.019 1283.11 562.664 1282.79 563.496C1282.47 564.317 1282.31 565.272 1282.31 566.36C1282.31 568.035 1282.69 569.373 1283.45 570.376C1284.22 571.368 1285.34 571.864 1286.83 571.864ZM1302.03 575L1296.75 557.688L1300.53 557.72L1303.9 568.808L1307.33 557.72H1310.57L1313.98 568.808L1317.37 557.72H1321.15L1315.87 575H1312.86L1308.94 563.112L1305.04 575H1302.03ZM1331.27 575.48C1329.52 575.48 1327.98 575.101 1326.66 574.344C1325.34 573.587 1324.3 572.536 1323.56 571.192C1322.82 569.848 1322.45 568.301 1322.45 566.552C1322.45 564.664 1322.81 563.027 1323.54 561.64C1324.27 560.243 1325.27 559.16 1326.56 558.392C1327.85 557.624 1329.35 557.24 1331.04 557.24C1332.84 557.24 1334.36 557.661 1335.6 558.504C1336.86 559.336 1337.8 560.515 1338.4 562.04C1339.01 563.565 1339.24 565.363 1339.09 567.432H1335.27V566.024C1335.26 564.147 1334.93 562.776 1334.28 561.912C1333.63 561.048 1332.6 560.616 1331.2 560.616C1329.63 560.616 1328.45 561.107 1327.68 562.088C1326.92 563.059 1326.53 564.483 1326.53 566.36C1326.53 568.109 1326.92 569.464 1327.68 570.424C1328.45 571.384 1329.57 571.864 1331.04 571.864C1331.99 571.864 1332.81 571.656 1333.49 571.24C1334.19 570.813 1334.72 570.2 1335.09 569.4L1338.9 570.552C1338.24 572.109 1337.21 573.32 1335.83 574.184C1334.45 575.048 1332.93 575.48 1331.27 575.48ZM1325.32 567.432V564.52H1337.2V567.432H1325.32ZM1349.59 575.48C1348 575.48 1346.61 575.08 1345.43 574.28C1344.25 573.48 1343.33 572.392 1342.68 571.016C1342.03 569.64 1341.7 568.088 1341.7 566.36C1341.7 564.611 1342.03 563.053 1342.68 561.688C1343.34 560.312 1344.27 559.229 1345.48 558.44C1346.68 557.64 1348.1 557.24 1349.73 557.24C1351.38 557.24 1352.75 557.64 1353.86 558.44C1354.98 559.229 1355.83 560.312 1356.41 561.688C1356.98 563.064 1357.27 564.621 1357.27 566.36C1357.27 568.077 1356.98 569.629 1356.41 571.016C1355.83 572.392 1354.97 573.48 1353.83 574.28C1352.69 575.08 1351.28 575.48 1349.59 575.48ZM1350.18 572.024C1351.22 572.024 1352.05 571.789 1352.68 571.32C1353.32 570.84 1353.78 570.173 1354.07 569.32C1354.37 568.467 1354.52 567.48 1354.52 566.36C1354.52 565.229 1354.37 564.243 1354.07 563.4C1353.78 562.547 1353.33 561.885 1352.71 561.416C1352.09 560.936 1351.29 560.696 1350.31 560.696C1349.28 560.696 1348.42 560.952 1347.75 561.464C1347.08 561.965 1346.58 562.648 1346.26 563.512C1345.94 564.365 1345.78 565.315 1345.78 566.36C1345.78 567.416 1345.94 568.376 1346.25 569.24C1346.57 570.093 1347.05 570.771 1347.7 571.272C1348.35 571.773 1349.18 572.024 1350.18 572.024ZM1354.52 575V562.872H1354.04V551.96H1357.93V575H1354.52ZM1019.71 615C1018.57 615.213 1017.45 615.304 1016.35 615.272C1015.26 615.251 1014.29 615.053 1013.42 614.68C1012.56 614.296 1011.9 613.693 1011.46 612.872C1011.06 612.125 1010.85 611.363 1010.83 610.584C1010.81 609.805 1010.8 608.925 1010.8 607.944V592.92H1014.64V607.72C1014.64 608.413 1014.65 609.021 1014.66 609.544C1014.68 610.067 1014.79 610.493 1014.99 610.824C1015.38 611.464 1015.99 611.821 1016.83 611.896C1017.67 611.971 1018.63 611.928 1019.71 611.768V615ZM1007.66 600.744V597.72H1019.71V600.744H1007.66ZM1030.18 615.48C1028.46 615.48 1026.95 615.091 1025.66 614.312C1024.37 613.533 1023.36 612.461 1022.65 611.096C1021.94 609.72 1021.59 608.141 1021.59 606.36C1021.59 604.547 1021.96 602.957 1022.68 601.592C1023.41 600.227 1024.41 599.16 1025.7 598.392C1027 597.624 1028.49 597.24 1030.18 597.24C1031.92 597.24 1033.44 597.629 1034.73 598.408C1036.02 599.187 1037.02 600.264 1037.74 601.64C1038.45 603.005 1038.81 604.579 1038.81 606.36C1038.81 608.152 1038.45 609.736 1037.72 611.112C1037.01 612.477 1036 613.549 1034.71 614.328C1033.42 615.096 1031.91 615.48 1030.18 615.48ZM1030.18 611.864C1031.72 611.864 1032.86 611.352 1033.61 610.328C1034.36 609.304 1034.73 607.981 1034.73 606.36C1034.73 604.685 1034.35 603.352 1033.59 602.36C1032.84 601.357 1031.7 600.856 1030.18 600.856C1029.15 600.856 1028.3 601.091 1027.62 601.56C1026.96 602.019 1026.47 602.664 1026.15 603.496C1025.83 604.317 1025.67 605.272 1025.67 606.36C1025.67 608.035 1026.05 609.373 1026.81 610.376C1027.58 611.368 1028.7 611.864 1030.18 611.864ZM1047.14 615L1054.4 591.96H1060.05L1067.32 615H1063.35L1056.76 594.328H1057.62L1051.11 615H1047.14ZM1051.19 610.008V606.408H1063.28V610.008H1051.19ZM1077.71 615.48C1075.93 615.48 1074.41 615.085 1073.15 614.296C1071.89 613.496 1070.93 612.408 1070.26 611.032C1069.6 609.656 1069.26 608.099 1069.25 606.36C1069.26 604.589 1069.61 603.021 1070.29 601.656C1070.98 600.28 1071.96 599.203 1073.23 598.424C1074.5 597.635 1076.01 597.24 1077.76 597.24C1079.72 597.24 1081.38 597.736 1082.74 598.728C1084.1 599.709 1084.99 601.053 1085.41 602.76L1081.57 603.8C1081.27 602.872 1080.77 602.152 1080.08 601.64C1079.39 601.117 1078.6 600.856 1077.71 600.856C1076.71 600.856 1075.88 601.096 1075.23 601.576C1074.58 602.045 1074.1 602.696 1073.79 603.528C1073.48 604.36 1073.33 605.304 1073.33 606.36C1073.33 608.003 1073.7 609.331 1074.43 610.344C1075.17 611.357 1076.26 611.864 1077.71 611.864C1078.74 611.864 1079.54 611.629 1080.13 611.16C1080.73 610.691 1081.17 610.013 1081.47 609.128L1085.41 610.008C1084.88 611.768 1083.94 613.123 1082.61 614.072C1081.28 615.011 1079.64 615.48 1077.71 615.48ZM1095.65 615.48C1093.87 615.48 1092.35 615.085 1091.09 614.296C1089.83 613.496 1088.87 612.408 1088.19 611.032C1087.53 609.656 1087.2 608.099 1087.19 606.36C1087.2 604.589 1087.54 603.021 1088.23 601.656C1088.92 600.28 1089.9 599.203 1091.17 598.424C1092.44 597.635 1093.95 597.24 1095.7 597.24C1097.66 597.24 1099.32 597.736 1100.67 598.728C1102.04 599.709 1102.93 601.053 1103.35 602.76L1099.51 603.8C1099.21 602.872 1098.71 602.152 1098.02 601.64C1097.32 601.117 1096.54 600.856 1095.65 600.856C1094.65 600.856 1093.82 601.096 1093.17 601.576C1092.52 602.045 1092.04 602.696 1091.73 603.528C1091.42 604.36 1091.27 605.304 1091.27 606.36C1091.27 608.003 1091.63 609.331 1092.37 610.344C1093.11 611.357 1094.2 611.864 1095.65 611.864C1096.67 611.864 1097.48 611.629 1098.07 611.16C1098.66 610.691 1099.11 610.013 1099.41 609.128L1103.35 610.008C1102.81 611.768 1101.88 613.123 1100.55 614.072C1099.21 615.011 1097.58 615.48 1095.65 615.48ZM1113.94 615.48C1112.19 615.48 1110.65 615.101 1109.33 614.344C1108.01 613.587 1106.97 612.536 1106.23 611.192C1105.49 609.848 1105.12 608.301 1105.12 606.552C1105.12 604.664 1105.49 603.027 1106.21 601.64C1106.94 600.243 1107.95 599.16 1109.24 598.392C1110.53 597.624 1112.02 597.24 1113.72 597.24C1115.51 597.24 1117.03 597.661 1118.28 598.504C1119.53 599.336 1120.47 600.515 1121.08 602.04C1121.68 603.565 1121.91 605.363 1121.76 607.432H1117.94V606.024C1117.93 604.147 1117.6 602.776 1116.95 601.912C1116.3 601.048 1115.27 600.616 1113.88 600.616C1112.3 600.616 1111.12 601.107 1110.36 602.088C1109.59 603.059 1109.2 604.483 1109.2 606.36C1109.2 608.109 1109.59 609.464 1110.36 610.424C1111.12 611.384 1112.24 611.864 1113.72 611.864C1114.67 611.864 1115.48 611.656 1116.16 611.24C1116.86 610.813 1117.39 610.2 1117.76 609.4L1121.57 610.552C1120.91 612.109 1119.89 613.32 1118.5 614.184C1117.12 615.048 1115.6 615.48 1113.94 615.48ZM1107.99 607.432V604.52H1119.88V607.432H1107.99ZM1132.01 615.48C1129.87 615.48 1128.14 615 1126.81 614.04C1125.47 613.08 1124.66 611.731 1124.37 609.992L1128.31 609.384C1128.51 610.237 1128.96 610.909 1129.65 611.4C1130.35 611.891 1131.22 612.136 1132.28 612.136C1133.21 612.136 1133.92 611.955 1134.42 611.592C1134.93 611.219 1135.19 610.712 1135.19 610.072C1135.19 609.677 1135.09 609.363 1134.9 609.128C1134.72 608.883 1134.32 608.648 1133.69 608.424C1133.06 608.2 1132.09 607.917 1130.79 607.576C1129.34 607.192 1128.19 606.781 1127.33 606.344C1126.48 605.896 1125.87 605.368 1125.49 604.76C1125.12 604.152 1124.93 603.416 1124.93 602.552C1124.93 601.475 1125.22 600.536 1125.78 599.736C1126.35 598.936 1127.14 598.323 1128.15 597.896C1129.16 597.459 1130.36 597.24 1131.73 597.24C1133.08 597.24 1134.27 597.448 1135.3 597.864C1136.35 598.28 1137.19 598.872 1137.83 599.64C1138.47 600.408 1138.86 601.309 1139.01 602.344L1135.08 603.048C1134.98 602.312 1134.65 601.731 1134.07 601.304C1133.5 600.877 1132.75 600.637 1131.8 600.584C1130.89 600.531 1130.16 600.669 1129.61 601C1129.05 601.32 1128.77 601.773 1128.77 602.36C1128.77 602.691 1128.89 602.973 1129.11 603.208C1129.33 603.443 1129.78 603.677 1130.45 603.912C1131.14 604.147 1132.15 604.435 1133.49 604.776C1134.87 605.128 1135.97 605.533 1136.79 605.992C1137.62 606.44 1138.22 606.979 1138.58 607.608C1138.96 608.237 1139.14 609 1139.14 609.896C1139.14 611.635 1138.51 613 1137.24 613.992C1135.98 614.984 1134.24 615.48 1132.01 615.48ZM1149.32 615.48C1147.18 615.48 1145.45 615 1144.12 614.04C1142.78 613.08 1141.97 611.731 1141.69 609.992L1145.62 609.384C1145.82 610.237 1146.27 610.909 1146.97 611.4C1147.66 611.891 1148.53 612.136 1149.59 612.136C1150.52 612.136 1151.23 611.955 1151.73 611.592C1152.25 611.219 1152.5 610.712 1152.5 610.072C1152.5 609.677 1152.41 609.363 1152.21 609.128C1152.03 608.883 1151.63 608.648 1151 608.424C1150.37 608.2 1149.4 607.917 1148.1 607.576C1146.65 607.192 1145.5 606.781 1144.65 606.344C1143.79 605.896 1143.18 605.368 1142.81 604.76C1142.43 604.152 1142.25 603.416 1142.25 602.552C1142.25 601.475 1142.53 600.536 1143.09 599.736C1143.66 598.936 1144.45 598.323 1145.46 597.896C1146.48 597.459 1147.67 597.24 1149.05 597.24C1150.39 597.24 1151.58 597.448 1152.61 597.864C1153.66 598.28 1154.5 598.872 1155.14 599.64C1155.78 600.408 1156.18 601.309 1156.33 602.344L1152.39 603.048C1152.29 602.312 1151.96 601.731 1151.38 601.304C1150.82 600.877 1150.06 600.637 1149.11 600.584C1148.2 600.531 1147.47 600.669 1146.92 601C1146.36 601.32 1146.09 601.773 1146.09 602.36C1146.09 602.691 1146.2 602.973 1146.42 603.208C1146.65 603.443 1147.09 603.677 1147.77 603.912C1148.45 604.147 1149.46 604.435 1150.81 604.776C1152.18 605.128 1153.28 605.533 1154.1 605.992C1154.93 606.44 1155.53 606.979 1155.89 607.608C1156.27 608.237 1156.45 609 1156.45 609.896C1156.45 611.635 1155.82 613 1154.55 613.992C1153.29 614.984 1151.55 615.48 1149.32 615.48ZM1171.9 615V595.576H1164.45V591.96H1183.21V595.576H1175.76V615H1171.9ZM1197.72 615V606.68C1197.72 606.136 1197.69 605.533 1197.61 604.872C1197.54 604.211 1197.36 603.576 1197.08 602.968C1196.82 602.349 1196.41 601.843 1195.87 601.448C1195.33 601.053 1194.61 600.856 1193.69 600.856C1193.2 600.856 1192.72 600.936 1192.24 601.096C1191.76 601.256 1191.32 601.533 1190.92 601.928C1190.54 602.312 1190.23 602.845 1190 603.528C1189.76 604.2 1189.64 605.064 1189.64 606.12L1187.36 605.144C1187.36 603.672 1187.64 602.339 1188.2 601.144C1188.78 599.949 1189.62 599 1190.73 598.296C1191.84 597.581 1193.21 597.224 1194.83 597.224C1196.11 597.224 1197.16 597.437 1198 597.864C1198.83 598.291 1199.49 598.835 1199.98 599.496C1200.47 600.157 1200.83 600.861 1201.07 601.608C1201.3 602.355 1201.45 603.064 1201.52 603.736C1201.59 604.397 1201.63 604.936 1201.63 605.352V615H1197.72ZM1185.74 615V591.96H1189.18V604.088H1189.64V615H1185.74ZM1206.12 595.096V591.56H1209.98V595.096H1206.12ZM1206.12 615V597.72H1209.98V615H1206.12ZM1221.44 615.48C1219.31 615.48 1217.58 615 1216.24 614.04C1214.91 613.08 1214.1 611.731 1213.81 609.992L1217.75 609.384C1217.95 610.237 1218.4 610.909 1219.09 611.4C1219.78 611.891 1220.66 612.136 1221.72 612.136C1222.64 612.136 1223.36 611.955 1223.86 611.592C1224.37 611.219 1224.63 610.712 1224.63 610.072C1224.63 609.677 1224.53 609.363 1224.34 609.128C1224.16 608.883 1223.75 608.648 1223.12 608.424C1222.49 608.2 1221.53 607.917 1220.23 607.576C1218.78 607.192 1217.62 606.781 1216.77 606.344C1215.92 605.896 1215.3 605.368 1214.93 604.76C1214.56 604.152 1214.37 603.416 1214.37 602.552C1214.37 601.475 1214.65 600.536 1215.22 599.736C1215.78 598.936 1216.57 598.323 1217.59 597.896C1218.6 597.459 1219.8 597.24 1221.17 597.24C1222.52 597.24 1223.7 597.448 1224.74 597.864C1225.78 598.28 1226.63 598.872 1227.27 599.64C1227.91 600.408 1228.3 601.309 1228.45 602.344L1224.52 603.048C1224.42 602.312 1224.08 601.731 1223.51 601.304C1222.94 600.877 1222.18 600.637 1221.24 600.584C1220.33 600.531 1219.6 600.669 1219.04 601C1218.49 601.32 1218.21 601.773 1218.21 602.36C1218.21 602.691 1218.32 602.973 1218.55 603.208C1218.77 603.443 1219.22 603.677 1219.89 603.912C1220.57 604.147 1221.59 604.435 1222.93 604.776C1224.31 605.128 1225.41 605.533 1226.23 605.992C1227.06 606.44 1227.66 606.979 1228.02 607.608C1228.39 608.237 1228.58 609 1228.58 609.896C1228.58 611.635 1227.94 613 1226.68 613.992C1225.42 614.984 1223.67 615.48 1221.44 615.48ZM1238.49 615V591.96H1248.01C1248.23 591.96 1248.52 591.971 1248.87 591.992C1249.23 592.003 1249.55 592.035 1249.85 592.088C1251.18 592.291 1252.28 592.733 1253.15 593.416C1254.02 594.099 1254.67 594.963 1255.08 596.008C1255.51 597.043 1255.72 598.195 1255.72 599.464C1255.72 600.723 1255.51 601.875 1255.08 602.92C1254.66 603.955 1254 604.813 1253.13 605.496C1252.27 606.179 1251.17 606.621 1249.85 606.824C1249.55 606.867 1249.22 606.899 1248.86 606.92C1248.51 606.941 1248.22 606.952 1248.01 606.952H1242.35V615H1238.49ZM1242.35 603.352H1247.85C1248.06 603.352 1248.3 603.341 1248.57 603.32C1248.84 603.299 1249.08 603.256 1249.31 603.192C1249.95 603.032 1250.45 602.749 1250.81 602.344C1251.18 601.939 1251.44 601.48 1251.59 600.968C1251.75 600.456 1251.83 599.955 1251.83 599.464C1251.83 598.973 1251.75 598.472 1251.59 597.96C1251.44 597.437 1251.18 596.973 1250.81 596.568C1250.45 596.163 1249.95 595.88 1249.31 595.72C1249.08 595.656 1248.84 595.619 1248.57 595.608C1248.3 595.587 1248.06 595.576 1247.85 595.576H1242.35V603.352ZM1263.32 615.48C1262.07 615.48 1261.02 615.245 1260.15 614.776C1259.29 614.296 1258.63 613.661 1258.19 612.872C1257.75 612.083 1257.53 611.213 1257.53 610.264C1257.53 609.432 1257.67 608.685 1257.95 608.024C1258.22 607.352 1258.65 606.776 1259.23 606.296C1259.8 605.805 1260.55 605.405 1261.47 605.096C1262.16 604.872 1262.97 604.669 1263.9 604.488C1264.84 604.307 1265.85 604.141 1266.94 603.992C1268.04 603.832 1269.18 603.661 1270.38 603.48L1269 604.264C1269.01 603.069 1268.75 602.189 1268.2 601.624C1267.66 601.059 1266.74 600.776 1265.45 600.776C1264.67 600.776 1263.92 600.957 1263.19 601.32C1262.47 601.683 1261.96 602.307 1261.67 603.192L1258.15 602.088C1258.58 600.627 1259.39 599.453 1260.59 598.568C1261.79 597.683 1263.41 597.24 1265.45 597.24C1266.99 597.24 1268.34 597.491 1269.5 597.992C1270.67 598.493 1271.54 599.315 1272.11 600.456C1272.42 601.064 1272.6 601.688 1272.67 602.328C1272.73 602.957 1272.76 603.645 1272.76 604.392V615H1269.39V611.256L1269.95 611.864C1269.17 613.112 1268.26 614.029 1267.21 614.616C1266.18 615.192 1264.88 615.48 1263.32 615.48ZM1264.09 612.408C1264.96 612.408 1265.71 612.253 1266.33 611.944C1266.95 611.635 1267.44 611.256 1267.8 610.808C1268.18 610.36 1268.43 609.939 1268.55 609.544C1268.76 609.053 1268.87 608.493 1268.89 607.864C1268.92 607.224 1268.94 606.707 1268.94 606.312L1270.12 606.664C1268.96 606.845 1267.96 607.005 1267.13 607.144C1266.3 607.283 1265.58 607.416 1264.99 607.544C1264.39 607.661 1263.86 607.795 1263.4 607.944C1262.95 608.104 1262.58 608.291 1262.27 608.504C1261.96 608.717 1261.72 608.963 1261.55 609.24C1261.39 609.517 1261.31 609.843 1261.31 610.216C1261.31 610.643 1261.41 611.021 1261.63 611.352C1261.84 611.672 1262.15 611.928 1262.55 612.12C1262.97 612.312 1263.48 612.408 1264.09 612.408ZM1284.19 623.16C1283.23 623.16 1282.31 623.011 1281.42 622.712C1280.55 622.413 1279.76 621.981 1279.06 621.416C1278.35 620.861 1277.78 620.189 1277.33 619.4L1280.88 617.64C1281.21 618.269 1281.67 618.733 1282.27 619.032C1282.88 619.341 1283.52 619.496 1284.21 619.496C1285.01 619.496 1285.72 619.352 1286.35 619.064C1286.98 618.787 1287.47 618.371 1287.81 617.816C1288.16 617.272 1288.32 616.589 1288.3 615.768V610.856H1288.78V597.72H1292.16V615.832C1292.16 616.269 1292.14 616.685 1292.1 617.08C1292.06 617.485 1292 617.88 1291.92 618.264C1291.66 619.384 1291.17 620.301 1290.45 621.016C1289.72 621.741 1288.82 622.28 1287.74 622.632C1286.68 622.984 1285.49 623.16 1284.19 623.16ZM1283.86 615.48C1282.27 615.48 1280.88 615.08 1279.7 614.28C1278.51 613.48 1277.59 612.392 1276.94 611.016C1276.29 609.64 1275.97 608.088 1275.97 606.36C1275.97 604.611 1276.29 603.053 1276.94 601.688C1277.6 600.312 1278.54 599.229 1279.74 598.44C1280.95 597.64 1282.37 597.24 1284 597.24C1285.64 597.24 1287.02 597.64 1288.13 598.44C1289.25 599.229 1290.1 600.312 1290.67 601.688C1291.25 603.064 1291.54 604.621 1291.54 606.36C1291.54 608.077 1291.25 609.629 1290.67 611.016C1290.1 612.392 1289.24 613.48 1288.1 614.28C1286.95 615.08 1285.54 615.48 1283.86 615.48ZM1284.45 612.024C1285.48 612.024 1286.31 611.789 1286.94 611.32C1287.58 610.84 1288.05 610.173 1288.34 609.32C1288.63 608.467 1288.78 607.48 1288.78 606.36C1288.78 605.229 1288.63 604.243 1288.34 603.4C1288.05 602.547 1287.59 601.885 1286.98 601.416C1286.36 600.936 1285.56 600.696 1284.58 600.696C1283.54 600.696 1282.69 600.952 1282.02 601.464C1281.34 601.965 1280.85 602.648 1280.53 603.512C1280.21 604.365 1280.05 605.315 1280.05 606.36C1280.05 607.416 1280.2 608.376 1280.51 609.24C1280.83 610.093 1281.32 610.771 1281.97 611.272C1282.62 611.773 1283.44 612.024 1284.45 612.024ZM1304.5 615.48C1302.75 615.48 1301.22 615.101 1299.89 614.344C1298.57 613.587 1297.54 612.536 1296.79 611.192C1296.05 609.848 1295.69 608.301 1295.69 606.552C1295.69 604.664 1296.05 603.027 1296.77 601.64C1297.5 600.243 1298.51 599.16 1299.8 598.392C1301.09 597.624 1302.58 597.24 1304.28 597.24C1306.07 597.24 1307.59 597.661 1308.84 598.504C1310.1 599.336 1311.03 600.515 1311.64 602.04C1312.25 603.565 1312.48 605.363 1312.33 607.432H1308.5V606.024C1308.49 604.147 1308.16 602.776 1307.51 601.912C1306.86 601.048 1305.84 600.616 1304.44 600.616C1302.86 600.616 1301.69 601.107 1300.92 602.088C1300.15 603.059 1299.77 604.483 1299.77 606.36C1299.77 608.109 1300.15 609.464 1300.92 610.424C1301.69 611.384 1302.81 611.864 1304.28 611.864C1305.23 611.864 1306.04 611.656 1306.73 611.24C1307.42 610.813 1307.95 610.2 1308.33 609.4L1312.13 610.552C1311.47 612.109 1310.45 613.32 1309.06 614.184C1307.69 615.048 1306.17 615.48 1304.5 615.48ZM1298.55 607.432V604.52H1310.44V607.432H1298.55Z" fill="#18120F"/>
<path d="M1035.96 501V477.256H969.6V450.332L1017.72 348.36H1050.8L1002.67 450.332H1035.96V412.172H1065.21V450.332H1078.78V477.256H1065.21V501H1035.96ZM1160.87 504.18C1149.57 504.18 1139.67 501.813 1131.19 497.078C1122.71 492.343 1116.11 485.736 1111.37 477.256C1106.64 468.776 1104.27 458.883 1104.27 447.576V401.784C1104.27 390.477 1106.64 380.584 1111.37 372.104C1116.11 363.624 1122.71 357.017 1131.19 352.282C1139.67 347.547 1149.57 345.18 1160.87 345.18C1172.18 345.18 1182.07 347.547 1190.55 352.282C1199.03 357.017 1205.64 363.624 1210.38 372.104C1215.11 380.584 1217.48 390.477 1217.48 401.784V447.576C1217.48 458.883 1215.11 468.776 1210.38 477.256C1205.64 485.736 1199.03 492.343 1190.55 497.078C1182.07 501.813 1172.18 504.18 1160.87 504.18ZM1160.87 476.832C1165.96 476.832 1170.56 475.631 1174.65 473.228C1178.75 470.825 1182 467.575 1184.41 463.476C1186.81 459.377 1188.01 454.784 1188.01 449.696V399.452C1188.01 394.364 1186.81 389.771 1184.41 385.672C1182 381.573 1178.75 378.323 1174.65 375.92C1170.56 373.517 1165.96 372.316 1160.87 372.316C1155.79 372.316 1151.19 373.517 1147.09 375.92C1143 378.323 1139.74 381.573 1137.34 385.672C1134.94 389.771 1133.74 394.364 1133.74 399.452V449.696C1133.74 454.784 1134.94 459.377 1137.34 463.476C1139.74 467.575 1143 470.825 1147.09 473.228C1151.19 475.631 1155.79 476.832 1160.87 476.832ZM1309.24 501V477.256H1242.88V450.332L1291.01 348.36H1324.08L1275.95 450.332H1309.24V412.172H1338.49V450.332H1352.06V477.256H1338.49V501H1309.24Z" fill="#578787"/>
</g>
</g>
<defs>
<clipPath id="clip0_0_107">
<rect width="1529" height="1030" fill="white"/>
</clipPath>
</defs>
</svg>
