<svg width="1529" height="1030" viewBox="0 0 1529 1030" fill="none" xmlns="http://www.w3.org/2000/svg">
<g clip-path="url(#clip0_16229_642)">
<rect width="1529" height="1030" rx="20" fill="white"/>
<mask id="mask0_16229_642" style="mask-type:luminance" maskUnits="userSpaceOnUse" x="0" y="0" width="1529" height="1030">
<rect width="1529" height="1030" rx="20" fill="white"/>
</mask>
<g mask="url(#mask0_16229_642)">
<path fill-rule="evenodd" clip-rule="evenodd" d="M311.677 426.287C304.778 416.626 299.817 405.373 297.511 392.964C289.024 347.292 319.466 303.442 365.506 295.022C376.618 292.99 387.619 293.227 398.042 295.368C407.904 276.161 426.34 261.556 449.361 257.346C488.622 250.166 523.722 277.487 530.96 316.434L529.566 319.248C551.484 324.476 567.777 344.037 567.777 367.384C567.777 377.178 564.899 386.301 559.952 393.988C594.458 398.224 621.176 427.393 621.176 462.77C621.176 501.062 587.723 519.47 551.284 532.103C519.556 543.102 401.415 577.962 401.415 577.962C355.375 586.382 294.327 548.95 285.839 503.279C280.372 473.859 291.074 445.211 311.677 426.287" fill="#036666"/>
<path fill-rule="evenodd" clip-rule="evenodd" d="M763.788 451.185C787.864 439.785 816.342 444.555 816.342 444.555C816.342 444.555 858.38 438.587 860.104 445.107C863.82 459.154 831.088 472.422 831.088 472.422L763.788 451.185" fill="#5A2E24"/>
<path fill-rule="evenodd" clip-rule="evenodd" d="M802.316 486.43C840.587 486.009 861.723 470.26 864.758 456.773C866.261 450.084 860.43 445.471 856.406 452.878C852.955 459.227 842.526 466.481 841.495 466.375C846.758 461.94 853.525 455.443 855.329 450.048C858.397 440.879 857.047 431.266 850.864 428.745C848.42 427.747 846.908 430.531 846.908 430.531C846.908 430.531 846.216 422.339 840.727 422.751C833.31 423.309 833.213 433.472 833.213 433.472C833.213 433.472 834.488 425.164 827.594 425.728C822.702 426.129 821.563 433.934 819.082 441.348C816.014 450.517 795.025 452.483 791.152 450.926C787.279 449.371 770.676 445.188 759.567 455.101C738.433 473.96 711.344 574.532 711.344 574.532L772.889 619.637L802.316 486.43" fill="#C28160"/>
<path fill-rule="evenodd" clip-rule="evenodd" d="M256.448 592.218C290.986 567.171 361.48 487.215 408.28 483.094C419.661 479.262 441.606 472.514 466.985 468C502.612 461.662 543.363 462.585 550.032 462.787C550.067 462.784 550.093 462.775 550.128 462.77C606.335 452.982 694.39 599.321 694.39 599.321C694.39 599.321 710.856 531.55 728.064 515.044C728.064 515.044 721.298 501.094 726.329 498.526C731.358 495.955 793.141 510.523 802.501 515.378C811.193 519.883 796.074 534.858 796.074 534.858C796.074 534.858 788.609 645.361 743.352 685.584C690.665 732.41 655.274 696.4 609.094 632.085C608.298 680.572 598.555 759.976 574.857 762.774C532.437 767.781 438.547 768.19 393.662 763.929C378.366 762.477 363.421 686.965 358.433 646.749C309.921 686.488 250.791 712.264 230.655 701.512C206.45 688.589 215.024 622.259 256.448 592.218" fill="#FF8548"/>
<path fill-rule="evenodd" clip-rule="evenodd" d="M609.673 633.438C610.084 633.438 610.449 633.147 610.528 632.731C621.316 575.057 591.743 537.524 591.441 537.153C591.142 536.777 590.594 536.721 590.219 537.018C589.843 537.316 589.782 537.861 590.084 538.236C590.378 538.603 619.453 575.554 608.817 632.413C608.728 632.884 609.041 633.338 609.513 633.423C609.567 633.433 609.621 633.438 609.673 633.438" fill="#D56E3A"/>
<path fill-rule="evenodd" clip-rule="evenodd" d="M357.977 648.159C358.167 648.159 358.359 648.098 358.519 647.967C367.258 640.978 371.543 633.218 371.721 632.892C371.952 632.469 371.797 631.937 371.376 631.706C370.955 631.472 370.424 631.629 370.194 632.053C370.15 632.129 365.885 639.844 357.434 646.602C357.058 646.903 356.997 647.451 357.297 647.829C357.467 648.046 357.721 648.159 357.977 648.159" fill="#D56E3A"/>
<path fill-rule="evenodd" clip-rule="evenodd" d="M265.83 586.514C265.83 586.514 276.357 640.234 268.822 655.336C261.286 670.44 253.137 596.096 253.137 596.096L265.83 586.514" fill="#D56E3A"/>
<path fill-rule="evenodd" clip-rule="evenodd" d="M695.703 599.999C695.703 599.999 685.004 630.887 684.68 639.879C684.68 639.879 678.541 604.051 688.578 589.273L695.703 599.999" fill="#D56E3A"/>
<path fill-rule="evenodd" clip-rule="evenodd" d="M742.135 519.341C742.569 519.341 742.946 519.033 743.008 518.61C743.077 518.144 742.74 517.715 742.258 517.649C739.414 517.263 736.463 516.908 733.484 516.59C732.987 516.547 732.565 516.877 732.51 517.343C732.458 517.809 732.807 518.229 733.292 518.282C736.251 518.596 739.186 518.95 742.011 519.333C742.054 519.339 742.094 519.341 742.135 519.341ZM759.493 522.306C759.899 522.306 760.264 522.033 760.352 521.637C760.458 521.178 760.156 520.724 759.68 520.624C756.902 520.039 753.981 519.486 750.995 518.979C750.516 518.894 750.059 519.205 749.974 519.668C749.889 520.131 750.21 520.571 750.688 520.653C753.651 521.156 756.549 521.705 759.302 522.285C759.366 522.299 759.431 522.306 759.493 522.306ZM776.482 526.805C776.847 526.805 777.189 526.584 777.314 526.232C777.473 525.788 777.228 525.304 776.767 525.152C774.122 524.273 771.266 523.433 768.284 522.649C767.817 522.525 767.33 522.794 767.201 523.246C767.074 523.7 767.351 524.168 767.82 524.29C770.767 525.064 773.584 525.894 776.194 526.759C776.289 526.79 776.386 526.805 776.482 526.805ZM792.348 534.068C792.602 534.068 792.853 533.964 793.027 533.762C793.338 533.401 793.287 532.866 792.913 532.565C792.821 532.492 790.585 530.718 785.043 528.293C784.6 528.096 784.078 528.29 783.877 528.716C783.676 529.143 783.872 529.648 784.315 529.84C789.602 532.155 791.765 533.857 791.786 533.872C791.952 534.005 792.151 534.068 792.348 534.068V534.068Z" fill="#FFAB81"/>
<path fill-rule="evenodd" clip-rule="evenodd" d="M549.275 733.728L550.328 729.089L529.299 724.527L528.246 729.167L549.275 733.728" fill="#FFAB81"/>
<path fill-rule="evenodd" clip-rule="evenodd" d="M428.742 601.235L429.793 596.596L408.764 592.034L407.711 596.674L428.742 601.235" fill="#FFAB81"/>
<path fill-rule="evenodd" clip-rule="evenodd" d="M331.214 644.479L332.266 639.841L311.236 635.278L310.183 639.919L331.214 644.479" fill="#FFAB81"/>
<path fill-rule="evenodd" clip-rule="evenodd" d="M404.82 745.69L405.871 741.052L384.84 736.489L383.789 741.13L404.82 745.69" fill="#FFAB81"/>
<path fill-rule="evenodd" clip-rule="evenodd" d="M470.28 605.338L475.344 605.835L477.641 584.252L472.574 583.753L470.28 605.338" fill="#FFAB81"/>
<path fill-rule="evenodd" clip-rule="evenodd" d="M703.983 629.261L709.047 629.758L711.344 608.175L706.279 607.676L703.983 629.261" fill="#FFAB81"/>
<path fill-rule="evenodd" clip-rule="evenodd" d="M443.671 552.469L447.277 549.308L433.403 533.147L429.796 536.309L443.671 552.469" fill="#FFAB81"/>
<path fill-rule="evenodd" clip-rule="evenodd" d="M383.914 517.506L383.789 522.469L405.746 523.026L405.871 518.063L383.914 517.506" fill="#FFAB81"/>
<path fill-rule="evenodd" clip-rule="evenodd" d="M533.28 656.441L538.367 656.345L537.934 634.358L532.847 634.454L533.28 656.441" fill="#FFAB81"/>
<path fill-rule="evenodd" clip-rule="evenodd" d="M577.93 708.762L581.811 711.646L594.492 694.289L590.611 691.404L577.93 708.762" fill="#FFAB81"/>
<path fill-rule="evenodd" clip-rule="evenodd" d="M745.386 560.05L746.766 564.431L767.469 558.689L766.089 554.31L745.386 560.05" fill="#FFAB81"/>
<path fill-rule="evenodd" clip-rule="evenodd" d="M465.677 740.045L469.559 742.93L482.238 725.571L478.357 722.688L465.677 740.045" fill="#FFAB81"/>
<path fill-rule="evenodd" clip-rule="evenodd" d="M513.219 694.164L516.285 690.289L499.108 676.683L496.043 680.558L513.219 694.164" fill="#FFAB81"/>
<path fill-rule="evenodd" clip-rule="evenodd" d="M529.164 590.355L532.587 593.874L547.566 578.069L544.144 574.552L529.164 590.355" fill="#FFAB81"/>
<path fill-rule="evenodd" clip-rule="evenodd" d="M637.805 588.354L636.816 593.141L657.909 597.554L658.898 592.767L637.805 588.354" fill="#FFAB81"/>
<path fill-rule="evenodd" clip-rule="evenodd" d="M494.543 514.746L493.281 519.367L514.101 524.867L515.363 520.247L494.543 514.746" fill="#FFAB81"/>
<path fill-rule="evenodd" clip-rule="evenodd" d="M353.426 580.236L356.849 583.753L371.828 567.949L368.406 564.431L353.426 580.236" fill="#FFAB81"/>
<path fill-rule="evenodd" clip-rule="evenodd" d="M593.573 501.117L596.954 504.624L609.215 491.568L605.835 488.062L593.573 501.117" fill="#FFAB81"/>
<path fill-rule="evenodd" clip-rule="evenodd" d="M382.868 673.89L387.254 674.843L391.148 653.715L386.76 652.761L382.868 673.89" fill="#FFAB81"/>
<path fill-rule="evenodd" clip-rule="evenodd" d="M284.418 606.72L288.805 607.675L292.699 586.546L288.311 585.593L284.418 606.72" fill="#FFAB81"/>
<path fill-rule="evenodd" clip-rule="evenodd" d="M491.441 649.508L491.129 644.479L469.359 645.892L469.67 650.92L491.441 649.508" fill="#FFAB81"/>
<path fill-rule="evenodd" clip-rule="evenodd" d="M767.672 638.959L771.148 635.497L755.305 620.557L751.826 624.02L767.672 638.959" fill="#FFAB81"/>
<path fill-rule="evenodd" clip-rule="evenodd" d="M587.595 615.036L589.891 610.83L570.106 601.234L567.808 605.44L587.595 615.036" fill="#FFAB81"/>
<path fill-rule="evenodd" clip-rule="evenodd" d="M707.664 686.177L706.912 681.283L685.582 684.67L686.332 689.564L707.664 686.177" fill="#FFAB81"/>
<path fill-rule="evenodd" clip-rule="evenodd" d="M568.576 673.922L572.41 670.447L567.663 656.44L563.209 658.084L568.576 673.922" fill="#FFAB81"/>
<path fill-rule="evenodd" clip-rule="evenodd" d="M589.397 569.951L593.57 567.633L583.942 547.869L579.769 550.187L589.397 569.951" fill="#FFAB81"/>
<path fill-rule="evenodd" clip-rule="evenodd" d="M426.54 709.806L430.715 707.488L421.088 687.724L416.913 690.043L426.54 709.806" fill="#FFAB81"/>
<path fill-rule="evenodd" clip-rule="evenodd" d="M646.444 661.961L650.617 659.643L640.989 639.879L636.816 642.197L646.444 661.961" fill="#FFAB81"/>
<path fill-rule="evenodd" clip-rule="evenodd" d="M599.476 656.44L599.092 661.236L607.895 664.721L608.293 659.59L599.476 656.44" fill="#FFAB81"/>
<path fill-rule="evenodd" clip-rule="evenodd" d="M552.744 367.574C554.244 373.483 550.669 379.49 544.76 380.989C538.852 382.49 532.845 378.916 531.346 373.007C529.845 367.097 533.419 361.091 539.329 359.591C545.238 358.092 551.243 361.664 552.744 367.574" fill="#FEC600"/>
<path fill-rule="evenodd" clip-rule="evenodd" d="M443.33 474.092L440.763 396.974L500.532 410.582L508.253 464.421C508.253 464.421 519.926 463.885 535.605 463.58C502.425 509.195 436.074 497.114 419.673 480.59C427.937 477.718 443.33 474.092 443.33 474.092" fill="#C28160"/>
<path fill-rule="evenodd" clip-rule="evenodd" d="M454.637 418.258C454.637 418.258 475.826 454.346 505.242 439.315L500.935 409.854L454.637 418.258" fill="#5A2E24"/>
<path fill-rule="evenodd" clip-rule="evenodd" d="M543.518 343.662C553.205 381.577 530.123 420.117 491.96 429.743C453.797 439.368 415.008 416.432 405.32 378.516C395.633 340.601 418.715 302.06 456.878 292.437C495.041 282.812 533.83 305.745 543.518 343.662" fill="#C28160"/>
<path fill-rule="evenodd" clip-rule="evenodd" d="M464.587 349.611C465.337 352.566 463.548 355.569 460.595 356.318C457.641 357.069 454.638 355.283 453.887 352.328C453.139 349.373 454.924 346.369 457.879 345.619C460.833 344.87 463.836 346.656 464.587 349.611" fill="#0C0F18"/>
<path fill-rule="evenodd" clip-rule="evenodd" d="M493.042 368.451C493.109 368.451 493.176 368.442 493.245 368.423C496.531 367.537 498.527 363.981 497.694 360.491C496.857 357.004 493.505 354.886 490.217 355.77C489.782 355.888 489.516 356.358 489.627 356.822C489.74 357.284 490.186 357.559 490.618 357.448C493.026 356.796 495.498 358.355 496.112 360.917C496.725 363.481 495.258 366.096 492.842 366.747C492.407 366.864 492.143 367.335 492.253 367.799C492.346 368.189 492.679 368.451 493.042 368.451" fill="#6B2F2B"/>
<path fill-rule="evenodd" clip-rule="evenodd" d="M519.794 335.809C520.543 338.764 518.757 341.768 515.803 342.516C512.848 343.267 509.845 341.481 509.094 338.526C508.345 335.571 510.133 332.567 513.086 331.817C516.04 331.068 519.044 332.856 519.794 335.809" fill="#0C0F18"/>
<path fill-rule="evenodd" clip-rule="evenodd" d="M500.677 401.574C500.882 401.574 501.087 401.505 501.253 401.364C501.625 401.05 501.667 400.502 501.349 400.138C501.218 399.989 488.058 385.318 463.491 394.44C463.033 394.61 462.803 395.112 462.976 395.561C463.15 396.011 463.657 396.238 464.115 396.067C487.483 387.392 499.506 400.702 500.008 401.273C500.182 401.471 500.429 401.574 500.677 401.574" fill="#6B2F2B"/>
<path fill-rule="evenodd" clip-rule="evenodd" d="M455.559 292.082C455.559 292.082 449.402 355.777 402.613 365.69C402.613 365.69 383.655 304.268 455.559 292.082" fill="#008282"/>
<path fill-rule="evenodd" clip-rule="evenodd" d="M455.559 292.525C455.559 292.525 486.876 329.025 526.406 312.74C526.406 312.74 502.768 271.523 455.559 292.525" fill="#008282"/>
<path fill-rule="evenodd" clip-rule="evenodd" d="M479.341 345.448C480.286 345.448 481.199 344.955 481.668 344.096C482.033 343.439 483.324 341.672 484.918 341.342C485.266 341.272 486.335 341.052 488.132 342.386C489.278 343.237 490.926 343.034 491.813 341.931C492.698 340.828 492.486 339.244 491.338 338.394C488.238 336.092 485.509 336.05 483.769 336.421C479.514 337.326 477.256 341.314 477.012 341.764C476.346 343.002 476.848 344.523 478.136 345.164C478.522 345.357 478.935 345.448 479.341 345.448" fill="#FFFFFE"/>
<path fill-rule="evenodd" clip-rule="evenodd" d="M411.233 373.97C411.651 373.97 412.074 373.868 412.467 373.655L438.551 359.537C439.814 358.852 440.283 357.274 439.601 356.012C438.918 354.75 437.341 354.279 436.076 354.962L409.994 369.082C408.731 369.765 408.261 371.342 408.944 372.606C409.416 373.475 410.31 373.97 411.233 373.97" fill="#FFFFFE"/>
<path fill-rule="evenodd" clip-rule="evenodd" d="M458.774 331.418C467.709 331.418 475.872 337.456 478.168 346.506C479.483 351.686 478.702 357.068 475.969 361.662C473.237 366.255 468.878 369.509 463.698 370.824C453.009 373.54 442.099 367.047 439.385 356.352C436.67 345.659 443.162 334.749 453.853 332.036C455.498 331.618 457.15 331.418 458.774 331.418ZM458.778 376.731C460.832 376.731 462.918 376.479 465 375.952C471.548 374.289 477.058 370.175 480.514 364.368C483.969 358.56 484.957 351.753 483.294 345.204C479.861 331.683 466.074 323.473 452.551 326.908C439.033 330.339 430.826 344.134 434.257 357.655C437.161 369.094 447.482 376.731 458.778 376.731V376.731Z" fill="#FFFFFE"/>
<path fill-rule="evenodd" clip-rule="evenodd" d="M513.98 316.695C522.917 316.695 531.081 322.734 533.377 331.782C536.092 342.477 529.6 353.385 518.905 356.101C508.214 358.816 497.304 352.324 494.589 341.629C491.873 330.936 498.366 320.026 509.059 317.312C510.704 316.894 512.356 316.695 513.98 316.695ZM513.985 362.01C516.04 362.01 518.126 361.756 520.208 361.228C533.73 357.795 541.936 344.002 538.505 330.481C535.073 316.959 521.282 308.754 507.757 312.184C494.236 315.616 486.028 329.409 489.461 342.932C492.365 354.371 502.688 362.01 513.985 362.01V362.01Z" fill="#FFFFFE"/>
<path fill-rule="evenodd" clip-rule="evenodd" d="M417.832 397.089C417.832 397.089 414.922 405.535 397.648 406.967C365.434 409.638 366.5 369.474 383.717 362.462C400.935 355.448 417.638 377.605 417.638 377.605L417.832 397.089" fill="#C28160"/>
<path fill-rule="evenodd" clip-rule="evenodd" d="M406.838 385.932C407.159 385.932 407.468 385.759 407.62 385.461C407.834 385.043 407.658 384.536 407.225 384.328L387.809 374.98C387.378 374.77 386.856 374.943 386.64 375.361C386.425 375.779 386.602 376.288 387.034 376.495L406.45 385.844C406.574 385.903 406.707 385.932 406.838 385.932" fill="#6B2F2B"/>
<path fill-rule="evenodd" clip-rule="evenodd" d="M408.291 404.379C409.79 410.288 406.217 416.293 400.307 417.794C394.398 419.294 388.393 415.719 386.893 409.811C385.392 403.902 388.967 397.895 394.876 396.396C400.784 394.895 406.791 398.469 408.291 404.379" fill="#FEC600"/>
<path fill-rule="evenodd" clip-rule="evenodd" d="M480.401 295.763C481.398 300.257 484.977 309.844 487.433 312.17C489.447 314.08 512.837 319.963 524.808 311.775C536.777 303.587 538.366 297.339 538.366 297.339C538.532 296.049 512.858 300.981 480.401 295.763" fill="#543525"/>
<path fill-rule="evenodd" clip-rule="evenodd" d="M457.398 308.257C454.073 305.319 445.814 299.877 442.539 299.453C439.849 299.107 417.796 307.777 412.806 320.944C407.816 334.111 410.053 339.881 410.053 339.881C410.647 340.979 428.45 322.585 457.398 308.257" fill="#543525"/>
<path fill-rule="evenodd" clip-rule="evenodd" d="M303.741 1029.94C308.045 970.642 306.612 871.271 402.647 786.763C402.647 786.763 376.859 774.585 384.927 765.465C392.645 756.74 436.901 765.593 485.441 765.465C527.497 765.355 574.195 754.523 585.669 768.379C593.062 777.304 573.268 786.763 573.268 786.763C635.246 832.123 681.244 971.296 691.102 1029.94L504.308 1029.97L487.226 957.074L489.27 1030L303.741 1029.94" fill="#009247"/>
<path fill-rule="evenodd" clip-rule="evenodd" d="M334.666 881.864C342.452 881.864 366.78 872.956 419.543 786.582C419.795 786.173 419.666 785.635 419.257 785.386C418.85 785.128 418.315 785.261 418.066 785.671C354.386 889.916 332.845 879.881 332.63 879.772C332.215 879.545 331.688 879.695 331.456 880.106C331.225 880.518 331.357 881.037 331.764 881.279C331.933 881.378 332.852 881.864 334.666 881.864" fill="#EEA22D"/>
<path fill-rule="evenodd" clip-rule="evenodd" d="M630.989 885.544C639.25 885.544 644.315 882.969 644.636 882.8C645.057 882.578 645.22 882.058 644.998 881.638C644.777 881.219 644.249 881.054 643.828 881.276C643.714 881.335 632.126 887.184 615.43 880.803C597.559 873.976 571.094 851.953 546.488 785.818C546.322 785.371 545.822 785.142 545.373 785.309C544.926 785.472 544.696 785.968 544.86 786.412C569.717 853.219 596.656 875.506 614.88 882.438C621.031 884.778 626.485 885.544 630.989 885.544" fill="#EEA22D"/>
<path fill-rule="evenodd" clip-rule="evenodd" d="M481.955 876.343C481.983 876.343 482.012 876.342 482.041 876.338C487.475 875.796 491.948 873.172 495.334 868.539C510.972 847.153 499.154 789.862 498.644 787.433C498.547 786.965 498.09 786.674 497.623 786.767C497.157 786.863 496.858 787.323 496.957 787.787C497.079 788.376 509.126 846.756 493.942 867.519C491.03 871.504 487.247 873.856 482.692 874.522L470.155 785.992C470.088 785.522 469.65 785.208 469.181 785.259C468.708 785.327 468.38 785.764 468.447 786.235L481.101 875.603C481.162 876.033 481.531 876.343 481.955 876.343" fill="#EEA22D"/>
<path fill-rule="evenodd" clip-rule="evenodd" d="M407.657 787.094H568.782C569.26 787.094 569.648 786.682 569.648 786.174C569.648 785.664 569.26 785.254 568.782 785.254H407.657C407.178 785.254 406.791 785.664 406.791 786.174C406.791 786.682 407.178 787.094 407.657 787.094" fill="#EEA22D"/>
<path fill-rule="evenodd" clip-rule="evenodd" d="M487.778 959.153C487.871 959.153 487.966 959.136 488.056 959.102L502.816 953.632C503.267 953.463 503.509 952.929 503.357 952.434C503.203 951.937 502.714 951.678 502.26 951.84L487.75 957.22L469.528 951.825C469.067 951.691 468.592 951.986 468.469 952.488C468.343 952.993 468.616 953.511 469.076 953.647L487.551 959.119C487.626 959.141 487.702 959.153 487.778 959.153" fill="#EEA22D"/>
<path fill-rule="evenodd" clip-rule="evenodd" d="M205.289 489.207C183.29 474.633 154.877 475.752 154.877 475.752C154.877 475.752 114.638 464.319 112.1 470.653C106.636 484.298 136.836 501.865 136.836 501.865L205.289 489.207" fill="#5A2E24"/>
<path fill-rule="evenodd" clip-rule="evenodd" d="M163.134 519.557C125.19 514.194 106.279 495.825 105.042 482.042C104.429 475.207 110.827 471.38 113.847 479.253C116.438 486.003 125.836 494.553 126.874 494.58C122.231 489.498 116.37 482.172 115.288 476.582C113.449 467.082 116.055 457.712 122.526 456.008C125.084 455.333 126.22 458.292 126.22 458.292C126.22 458.292 127.985 450.247 133.381 451.365C140.672 452.878 139.43 462.981 139.43 462.981C139.43 462.981 139.257 454.566 146.028 456.018C150.832 457.05 150.935 464.946 152.422 472.628C154.261 482.128 174.843 486.791 178.893 485.747C182.944 484.703 199.978 482.693 209.702 493.972C228.204 515.428 254.977 629.063 254.977 629.063L189.093 646.319L163.134 519.557" fill="#C28160"/>
<path fill-rule="evenodd" clip-rule="evenodd" d="M136.347 490.823C136.626 490.823 136.9 490.685 137.066 490.431C137.322 490.031 137.209 489.497 136.814 489.236C131.162 485.529 126.771 478.738 125.458 475.099C124.313 471.928 126.208 461.56 127.034 457.831C127.137 457.367 126.848 456.904 126.386 456.801C125.921 456.695 125.468 456.991 125.365 457.455C125.24 458.021 122.302 471.398 123.852 475.689C125.478 480.2 130.247 486.989 135.882 490.685C136.026 490.778 136.187 490.823 136.347 490.823" fill="#6B2F2B"/>
<path fill-rule="evenodd" clip-rule="evenodd" d="M151.082 488.983C151.358 488.983 151.628 488.842 151.79 488.583C152.043 488.175 151.933 487.629 151.542 487.365C145.969 483.585 141.641 476.662 140.344 472.952C138.993 469.079 140.622 462.55 140.639 462.485C140.757 462.015 140.489 461.533 140.039 461.41C139.587 461.285 139.128 461.565 139.009 462.034C138.936 462.323 137.228 469.16 138.761 473.554C140.366 478.153 145.069 485.074 150.623 488.84C150.765 488.937 150.925 488.983 151.082 488.983" fill="#6B2F2B"/>
<path fill-rule="evenodd" clip-rule="evenodd" d="M161.8 561.681C161.8 561.681 188.231 703.74 240.274 706.07C321.086 709.688 228.528 534.694 228.528 534.694C228.528 534.694 234.954 521.815 231.779 519.577C218.814 510.436 166.795 533.689 151.81 547.729C147.518 551.751 161.8 561.681 161.8 561.681" fill="#FF8548"/>
<path fill-rule="evenodd" clip-rule="evenodd" d="M220.017 536.828C220.065 536.828 220.115 536.824 220.165 536.815C223.005 536.304 224.676 536.127 224.691 536.125C225.201 536.072 225.575 535.569 225.527 535.003C225.479 534.436 225.03 534.01 224.517 534.074C224.446 534.082 222.776 534.261 219.87 534.782C219.364 534.873 219.021 535.4 219.103 535.963C219.175 536.469 219.57 536.828 220.017 536.828" fill="#FFAB81"/>
<path fill-rule="evenodd" clip-rule="evenodd" d="M203.874 540.564C203.953 540.564 204.033 540.554 204.114 540.532C206.713 539.785 209.36 539.105 211.979 538.513C212.443 538.409 212.732 537.952 212.627 537.493C212.522 537.034 212.061 536.741 211.599 536.852C208.945 537.45 206.266 538.136 203.635 538.892C203.179 539.024 202.916 539.496 203.049 539.95C203.157 540.322 203.501 540.564 203.874 540.564ZM188.478 545.996C188.591 545.996 188.706 545.973 188.816 545.927C191.262 544.89 193.806 543.905 196.38 542.999C196.827 542.841 197.063 542.355 196.903 541.911C196.745 541.466 196.253 541.234 195.806 541.391C193.197 542.308 190.617 543.307 188.141 544.358C187.704 544.542 187.501 545.043 187.687 545.477C187.826 545.801 188.146 545.996 188.478 545.996ZM173.944 553.39C174.097 553.39 174.251 553.351 174.391 553.266C176.652 551.895 179.035 550.575 181.468 549.34C181.891 549.125 182.058 548.611 181.843 548.191C181.626 547.773 181.107 547.608 180.686 547.819C178.215 549.075 175.795 550.416 173.497 551.808C173.091 552.054 172.962 552.58 173.21 552.981C173.371 553.245 173.655 553.39 173.944 553.39V553.39Z" fill="#FFAB81"/>
<path fill-rule="evenodd" clip-rule="evenodd" d="M163.894 560.751C164.099 560.751 164.305 560.685 164.475 560.55C165.671 559.599 166.884 558.682 168.109 557.798C168.522 557.501 168.611 556.93 168.309 556.523C168.009 556.117 167.432 556.029 167.015 556.327C165.767 557.227 164.531 558.162 163.312 559.13C162.914 559.447 162.851 560.022 163.174 560.412C163.357 560.636 163.624 560.751 163.894 560.751" fill="#FFAB81"/>
<path fill-rule="evenodd" clip-rule="evenodd" d="M208.051 562.993L204.285 559.83L190.569 576.91L194.335 580.072L208.051 562.993" fill="#FFAB81"/>
<path fill-rule="evenodd" clip-rule="evenodd" d="M194.25 642.063L196.321 646.32L216.332 637.697L214.26 633.438L194.25 642.063" fill="#FFAB81"/>
<path fill-rule="evenodd" clip-rule="evenodd" d="M245.274 612.276L249.457 609.678L237.999 591.114L233.815 593.713L245.274 612.276" fill="#FFAB81"/>
<path fill-rule="evenodd" clip-rule="evenodd" d="M235.425 673.923L233.812 678.254L254.282 684.964L255.895 680.633L235.425 673.923" fill="#FFAB81"/>
<path fill-rule="evenodd" clip-rule="evenodd" d="M415.939 477.096C417.31 476.639 418.794 477.371 419.253 478.729C419.489 479.423 441.546 543.216 483.081 551.253C484.518 547.024 488.542 543.976 493.293 543.976C497.698 543.976 501.482 546.599 503.154 550.353C540.324 538.103 538.642 464.851 538.617 464.05C538.577 462.617 539.713 461.422 541.158 461.382C542.577 461.328 543.808 462.465 543.851 463.897C543.956 467.37 545.687 543.235 504.028 555.579C503.559 561.051 498.936 565.351 493.293 565.351C487.965 565.351 483.551 561.517 482.678 556.48C437.849 548.502 415.296 483.357 414.289 480.38C413.83 479.021 414.569 477.551 415.939 477.096" fill="#FEC600"/>
<path fill-rule="evenodd" clip-rule="evenodd" d="M213.996 384.52C200.282 368.523 185.685 380.019 170.143 383.325C155.347 384.688 146.21 365.406 159.025 355.529C171.981 342.124 177.021 351.491 189.521 353.765C203.576 353.184 214.173 321.641 198.041 317.854C164.371 297.525 116.089 328.394 117.041 366.669C114.917 404.221 156.906 430.037 188.278 412.032C195.653 421.668 204.745 417.831 212.329 409.604C221.735 401.741 223.734 392.462 213.996 384.52ZM243.401 413.391C233.222 410.57 216.592 426.819 215.857 436.884C216.147 446.028 233.776 466.641 245.261 460.132C256.36 453.837 273.582 437.323 257.86 424.606C252.784 419.647 249.932 415.41 243.401 413.391V413.391Z" fill="#009247"/>
<path fill-rule="evenodd" clip-rule="evenodd" d="M704.303 339.096C693.467 357.115 708.883 367.332 716.856 381.018C722.76 394.609 707.391 409.323 694.059 400.283C677.351 392.219 684.628 384.503 682.878 371.945C680.095 360.63 651.804 359.736 648.296 368.275C632.357 407.919 679.233 450.614 717.685 436.562C753.832 426.779 765.125 378.886 738.326 354.821C745.129 344.807 738.668 337.398 728.527 332.796C718.163 326.355 708.771 327.377 704.303 339.096ZM722.412 302.169C722.923 312.699 743.464 323.351 753.205 320.885C761.755 317.737 775.732 294.562 765.999 285.725C756.589 277.186 735.61 266.056 728.498 284.947C725.397 291.314 722.281 295.347 722.412 302.169V302.169Z" fill="#009247"/>
</g>
</g>
<defs>
<clipPath id="clip0_16229_642">
<rect width="1529" height="1030" fill="white"/>
</clipPath>
</defs>
</svg>
