<svg width="400" height="400" viewBox="0 0 400 400" fill="none" xmlns="http://www.w3.org/2000/svg">
<path d="M268 9.40014C268 9.60014 268.7 11.7001 269.5 14.0001C271.5 19.8001 271.5 19.8001 266.9 21.1001C263.2 22.3001 261 24.3001 262.2 25.6001C262.5 25.9001 265 25.2001 267.8 24.1001L272.8 22.1001L274 26.6001C275.3 31.3001 276.3 32.5001 278 31.5001C278.6 31.2001 278.2 29.0001 277.1 26.1001L275.2 21.3001L280.1 19.6001C282.8 18.6001 285 17.2001 285 16.4001C285 14.7001 285.2 14.7001 280 16.5001C277.7 17.3001 275.4 18.0001 275 18.0001C274.5 18.0001 273.4 16.0001 272.4 13.5001C271.5 11.0001 270.1 9.00014 269.4 9.00014C268.6 9.00014 268 9.20014 268 9.40014Z" fill="#009247"/>
<path d="M181.5 25.4C173.4 28 161 34.1 150.7 40.5C144.1 44.6 143.5 44.8 141.8 43.4C140.2 41.9 139.9 41.9 137.3 44.1C106.6 70 76.0002 96.4 76.0002 97C76.0002 97.5 76.5002 98.2 77.0002 98.5C78.7002 99.6 78.2002 100.6 70.7002 109.3C54.8002 127.9 46.3002 144.1 48.3002 152.2C48.9002 154.5 61.2002 169.9 65.2002 173.2C66.6002 174.4 68.9002 175 72.5002 175C92.9002 175 137.3 147 175.1 110.3C202.7 83.5 218 61.8 218 49.3C218 44.3 217.8 43.8 210 34.6C205.6 29.3 201.1 24.6 200 24C196.9 22.4 189 22.9 181.5 25.4ZM198.9 26C199.9 26.5 201.3 28.3 202 30C205.2 37.7 195 54.5 171.8 79.8C141.9 112.3 96.3002 145.8 69.1002 155.1C57.0002 159.3 49.2002 156.2 50.3002 147.8C51.5002 139.1 62.8002 120.8 75.5002 107.2L80.6002 101.7L87.2002 109.5L93.8002 117.4L89.7002 121.1C87.4002 123.1 85.7002 125 86.0002 125.3C86.3002 125.6 88.7002 123.9 91.3002 121.6L96.1002 117.5L90.5002 111C87.5002 107.4 85.2002 104 85.3002 103.5C85.5002 102.9 99.1002 91.1 115.5 77.1L145.3 51.7L151.9 58.8L158.5 66L163.5 61.5C166.3 59 167.9 57 167.3 57C166.6 57 164.3 58.6 162.1 60.5L158.2 64L151.2 55.7L144.2 47.3L152.3 42.3C173.7 29 192.3 22.4 198.9 26ZM215.1 46.2C220.7 59.5 178.4 108.9 133 142.2C106.7 161.4 77.6002 175.1 69.5002 172C68.3002 171.5 65.0002 168.5 62.1002 165.3L56.9002 159.5L62.3002 158.8C82.0002 156.3 125.7 128 159.4 96C168.4 87.5 185.5 68.3 192 59.4C197.1 52.6 204 39.7 204 37.1C204 36.1 204.3 35 204.7 34.7C205.6 33.8 213.5 42.7 215.1 46.2ZM142.4 47.6C144.7 50.8 147.7 47.8 111.6 78.4L83.7002 102.1L81.1002 99.6L78.5002 97L82.0002 94.1C83.9002 92.5 97.7002 80.8 112.5 68.2C127.4 55.5 139.7 45.1 140 45.1C140.3 45.1 141.3 46.2 142.4 47.6Z" fill="#009247"/>
<path d="M279.998 87.5C267.098 96.3 248.998 116.8 248.998 122.7C248.998 126.5 251.498 126.5 260.398 122.6C270.198 118.4 280.698 116 288.998 116C298.598 116 299.098 115.3 296.798 106.6C295.798 102.9 295.098 102 293.098 101.8C287.798 101.1 305.698 97.7 316.998 97.2C330.798 96.7 337.498 97.9 346.998 102.6C354.998 106.7 359.998 111.8 364.098 120.5C377.598 148.9 359.598 200.8 318.398 252.4C306.598 267.3 292.798 281.5 291.898 279.8C291.498 279.1 283.198 250.4 273.498 216.1C263.798 181.7 255.298 152.6 254.798 151.4C253.698 149 247.798 146.3 242.498 145.8C239.898 145.5 239.398 144.9 237.998 140.2C236.098 133.6 233.198 131 227.598 131C225.298 131 208.798 133.9 190.998 137.5C159.698 143.7 158.398 144.1 155.798 147C152.798 150.3 152.298 154.2 153.998 161.5C154.498 163.7 154.798 165.5 154.698 165.6C154.598 165.7 153.598 166 152.398 166.4C150.698 166.9 149.798 166.3 147.898 163.5C146.598 161.6 144.998 160 144.398 160C143.898 160 136.098 165.4 127.198 172C114.498 181.4 110.998 184.5 110.998 186.2C110.998 187.8 109.398 189.8 105.898 192.5C99.9982 197.2 94.9982 204.3 94.9982 207.9C94.9982 209.3 99.0982 219.5 103.998 230.4C108.998 241.4 112.998 250.7 112.998 251.2C112.998 251.7 111.198 256 108.898 260.7C98.5982 282.3 94.1982 297.7 93.2982 315C92.1982 338.8 99.8982 353.9 117.298 362C127.598 366.8 144.698 368.2 160.198 365.4L163.998 364.7L168.098 373.6C172.698 383.8 173.998 385.4 179.498 388.3C185.698 391.5 204.998 391.9 218.998 389C254.798 381.7 292.398 362.6 302.798 346.3C307.998 338.1 307.898 336.4 300.198 309.5L293.298 285.5L303.398 274.5C328.398 247.4 343.898 225.3 356.198 199.2C372.998 163.7 375.898 131.8 363.998 113.8C354.498 99.5 338.998 93.2 315.998 94.4C309.698 94.7 301.098 95.8 296.998 96.9C292.898 98 288.798 99 287.998 99.2C287.198 99.4 287.998 99 289.798 98.2C293.298 96.6 293.798 94.6 291.898 88.9C290.798 85.8 288.498 82.9 287.098 83.1C286.798 83.1 283.598 85.1 279.998 87.5ZM289.998 89.8C291.398 95 291.598 94.7 285.798 97.6C281.398 99.8 267.598 108.2 266.098 109.6C265.898 109.8 265.898 110.2 266.198 110.5C266.498 110.8 268.898 110.2 271.598 109.2C275.798 107.5 290.398 104 293.098 104C293.898 104 295.998 110.2 295.998 112.6C295.998 113.3 292.598 113.9 286.798 114.3C276.098 114.9 268.098 116.9 259.098 121C255.598 122.7 252.398 124 251.898 124C248.498 124 257.098 111.1 267.098 101.3C274.998 93.5 286.798 84.7 288.098 85.6C288.598 85.8 289.398 87.7 289.998 89.8ZM228.798 133.9C228.298 135.2 199.698 166 198.898 166C198.098 166 160.098 148.4 159.298 147.7C158.498 146.9 160.398 146.5 195.498 139.4C229.898 132.6 229.298 132.7 228.798 133.9ZM233.798 137.2C234.298 137.9 236.198 145.5 237.898 154L240.998 169.5L238.798 171.3C228.698 179.2 205.098 191 182.798 199.4L175.998 201.9L168.498 191.6L160.998 181.2L158.498 169C155.998 156.8 155.498 151.8 156.598 150.8C156.898 150.5 164.798 153.8 174.298 158.2C183.798 162.6 193.398 167.1 195.698 168.1L199.998 169.9L215.698 153C224.398 143.6 231.798 136 232.098 136C232.498 136 233.198 136.6 233.798 137.2ZM250.998 150.5C254.498 153.7 253.598 158.1 248.398 163.9C245.798 166.8 243.598 168.9 243.398 168.7C243.098 168.4 238.998 149.5 238.998 148.3C238.998 147 249.198 148.9 250.998 150.5ZM281.798 291.9C277.398 296.1 273.098 299.8 272.398 300.3C271.498 300.8 270.698 299.5 269.698 295.8C253.598 238.6 244.398 207.5 243.298 206.4C240.398 203.6 233.998 206 233.998 209.9C233.998 210.8 240.298 233.5 247.998 260.4L261.898 309.3L259.298 311.4C251.198 317.9 235.398 328.8 234.898 328.2C234.498 327.8 226.298 305.4 216.498 278.5C206.798 251.5 198.098 228.7 197.198 227.7C196.398 226.8 194.798 226 193.698 226C191.098 226 187.998 228.8 187.998 231C187.998 232 196.298 255.7 206.498 283.6C216.698 311.6 224.998 334.7 224.998 335C224.998 335.9 200.598 349 198.898 349C197.798 349 189.898 332.4 173.398 295.4C156.498 257.5 148.798 241.3 147.198 240.2C144.298 238.3 140.298 239.9 139.498 243.3C138.998 245.1 144.898 259.2 162.498 298.6C175.598 327.7 186.398 352.2 186.698 353.1C186.998 354.3 184.798 355.4 176.498 357.9C170.698 359.8 165.798 361.1 165.598 360.9C164.898 359.9 101.098 216.5 101.298 216.3C101.498 216.2 104.598 216.5 108.298 217C132.498 220.5 189.798 203.7 226.498 182.5C239.098 175.2 245.698 170.3 250.598 164.7L254.498 160.2L272.198 222.3L289.998 284.4L281.798 291.9ZM155.998 179.7C162.298 188.3 168.798 197 170.298 199.1L173.098 202.9L164.698 205.4C146.698 210.9 121.498 215.7 119.498 214C118.898 213.5 116.998 211.1 115.298 208.7L112.198 204.4L117.598 200.2L122.998 196L119.898 189.9C118.298 186.5 117.098 183.5 117.498 183.1C119.298 181.2 142.698 164.2 143.498 164.1C144.098 164.1 149.698 171.1 155.998 179.7ZM155.998 168.7C155.998 169.2 156.398 171.2 156.898 173.2C157.398 175.3 157.698 177 157.498 177C156.498 177 151.998 169.8 152.498 169C153.198 167.8 155.998 167.6 155.998 168.7ZM117.298 196.8C112.198 200.6 111.798 200.5 112.598 195.3C113.498 188.7 113.898 188.4 116.598 192.2C118.898 195.3 118.998 195.5 117.298 196.8ZM110.198 198.6C109.198 204.4 109.298 204.4 113.098 209.5C115.298 212.4 116.998 215 116.998 215.4C116.998 216.3 108.498 215.4 102.898 213.9C98.1982 212.7 96.1982 209.3 97.9982 205.1C99.1982 202.1 109.698 191.4 110.598 192.3C110.898 192.5 110.698 195.4 110.198 198.6ZM242.498 208.7C242.898 209.7 249.198 231.4 256.498 257L269.898 303.5L267.298 305.8C265.898 307.1 264.398 307.8 263.998 307.3C263.098 306.4 235.998 211.7 235.998 209.6C235.998 206.8 241.398 206.1 242.498 208.7ZM195.898 229.3C196.998 230.7 232.998 329 232.998 330.7C232.998 331.2 231.698 332.3 230.198 333.2L227.298 334.9L208.698 283.6C198.398 255.3 189.998 231.8 189.998 231.3C189.998 230 192.198 228 193.598 228C194.198 228 195.298 228.6 195.898 229.3ZM147.398 243.2C148.698 245.2 195.998 350.7 195.998 351.5C195.998 351.9 189.698 354.1 189.498 353.8C188.698 352.8 140.998 245.1 140.998 244.2C140.998 243.1 143.698 241.1 145.198 241C145.598 241 146.598 242 147.398 243.2ZM139.098 308.8L162.698 361.5L160.098 362.4C158.698 362.9 151.198 363.3 143.498 363.4C127.198 363.5 121.698 362.2 112.998 356.1C101.698 348.3 96.8982 338.6 96.1982 322C95.6982 309.7 97.4982 298.6 102.198 284.7C105.398 275.1 113.898 256 114.898 256C115.198 256 126.098 279.7 139.098 308.8ZM298.098 312.7C305.498 339 305.498 339.5 296.198 349.3C271.298 375.3 202.398 396.7 180.198 385.2C176.398 383.3 173.998 379.8 169.498 369.7C167.698 365.5 167.298 363.8 168.198 363.5C168.898 363.3 173.098 362 177.498 360.6C181.898 359.3 186.198 357.9 187.098 357.5C188.198 357.1 189.198 358.3 190.898 361.9C193.198 367.1 195.498 368.6 199.098 367.5C202.598 366.4 203.298 362.5 200.998 357.2C198.998 352.7 199.398 351.1 202.498 351C203.098 351 208.398 348.3 214.398 345C220.498 341.7 225.698 339 226.098 339C226.398 339 227.998 342.5 229.498 346.7C230.998 351 232.698 355.1 233.198 355.8C234.998 358 239.798 357.2 241.598 354.5C243.198 352.1 243.098 351.5 239.698 342.1L236.198 332.2L243.298 327.2C247.298 324.5 253.198 320.1 256.398 317.6C259.698 315.1 262.498 313.2 262.798 313.4C262.998 313.7 264.698 319.2 266.598 325.6C268.498 332.1 270.498 337.7 271.198 338.2C273.098 339.4 277.398 339.2 278.798 337.8C280.698 335.9 280.198 332.4 276.098 318.2L272.198 304.9L277.398 300.1C288.798 289.5 290.498 288.1 291.098 289.3C291.498 290 294.598 300.5 298.098 312.7ZM274.398 319.9C276.498 327.6 277.998 334.5 277.698 335.4C277.298 336.3 275.898 337 274.598 337C271.898 337 270.998 334.9 266.298 316.7L264.498 309.9L266.998 308C268.398 306.9 269.698 306 269.998 306C270.298 306 272.298 312.3 274.398 319.9ZM237.798 342.9C240.498 350.4 240.898 352.4 239.898 353.6C239.198 354.4 237.698 355 236.598 354.8C234.998 354.6 233.798 352.5 231.198 345.6L227.898 336.6L230.198 334.8C231.498 333.8 232.898 333.2 233.398 333.3C233.898 333.5 235.898 337.8 237.798 342.9ZM198.798 357.5C201.498 363.1 201.498 363.7 199.098 365C196.098 366.5 194.398 365.3 192.198 360L190.198 355.1L192.798 354.1C194.298 353.6 195.698 353.1 196.098 353.1C196.398 353 197.598 355 198.798 357.5Z" fill="#009247"/>
<path d="M30.5983 249.3C28.4983 250.9 28.1983 255.3 29.9983 257.5C31.6983 259.6 36.2983 259.4 38.2983 257.2C42.8983 252.1 36.0983 245.3 30.5983 249.3ZM36.6983 252.6C36.9983 253.4 36.5983 254.8 35.7983 255.6C34.5983 256.8 34.0983 256.8 32.4983 255.7C30.1983 254 31.0983 251 33.9983 251C35.0983 251 36.2983 251.7 36.6983 252.6Z" fill="#009247"/>
<path d="M347.099 298.9C338.599 302 331.499 305.1 331.199 305.8C330.599 307.8 333.199 307.2 348.599 301.6C358.499 298 363.599 295.7 363.799 294.6C364.199 292.5 364.899 292.3 347.099 298.9Z" fill="#009247"/>
<path d="M184.002 27.1999C178.702 28.6999 159.402 38.2999 151.802 43.1999L145.102 47.4999L151.602 55.2999L158.102 62.9999L162.402 59.4999C167.102 55.6999 168.002 55.2999 168.002 57.1999C168.002 58.4999 159.402 65.9999 158.002 65.9999C157.602 65.9999 154.702 63.0999 151.702 59.4999C148.602 55.8999 145.902 52.7999 145.702 52.6999C145.402 52.5999 109.602 82.5999 85.8019 103C85.3019 103.3 87.5019 106.5 90.5019 110C93.5019 113.6 96.0019 116.9 96.0019 117.4C96.0019 118.6 87.7019 125.9 86.3019 126C84.0019 126 84.9019 124.2 89.0019 120.7L93.1019 117.2L86.8019 109.8L80.5019 102.4L78.2019 105C50.7019 135.8 43.1019 156.5 59.5019 156.2C70.4019 156.1 90.2019 146.2 116.402 127.6C149.802 104.1 186.702 66.5999 198.002 44.6999C202.302 36.2999 203.002 31.7999 200.402 28.1999C199.102 26.2999 198.002 25.9999 193.202 26.0999C190.102 26.0999 185.902 26.5999 184.002 27.1999Z" fill="#009247"/>
<path d="M110.002 71C93.8019 84.8 80.4019 96.2 80.2019 96.4C79.7019 97 82.4019 101 83.3019 101C83.7019 101 97.5019 89.6 113.902 75.7C143.502 50.5 143.702 50.3 141.902 48.2C141.002 47 140.002 46 139.802 46C139.602 46 126.202 57.3 110.002 71Z" fill="#009247"/>
<path d="M240 149.1C240 149.8 240.8 154.3 241.7 159.2L243.4 168L246.8 164.8C253.6 158.2 254.6 152.3 249.3 150.2C244.2 148.2 240 147.7 240 149.1Z" fill="#009247"/>
<path d="M154.201 172.399C155.501 174.299 156.501 175.799 156.601 175.699C156.701 175.599 156.501 173.999 156.301 172.199C155.901 169.899 155.201 168.999 153.901 168.999C152.101 168.999 152.101 169.199 154.201 172.399Z" fill="#009247"/>
<path d="M106.5 195.7C101.4 200.2 98 205.1 98 208.1C98 211.8 101.7 213.8 110.1 214.7C117 215.4 117 215.5 111.7 208.7C108.9 205.1 108.8 204.5 109.4 199C109.8 195.7 110 193 109.8 193C109.6 193 108.2 194.2 106.5 195.7Z" fill="#009247"/>
<path d="M281.003 90.3999C277.403 92.7999 271.203 98.0999 267.303 102.1C259.403 110.1 250.403 122.3 251.903 122.8C252.403 123 254.603 122.3 256.703 121.2C265.603 116.7 281.003 113 290.903 113H295.203L294.503 109.2C294.103 107.2 293.703 105.3 293.503 105.1C292.803 104.4 279.603 107.3 272.703 109.5C268.703 110.9 265.803 111.4 265.403 110.8C265.103 110.3 265.003 109.7 265.103 109.6C266.703 108.2 283.303 97.7999 286.303 96.3999C290.203 94.4999 290.603 93.1999 288.703 88.6999L287.503 85.9999L281.003 90.3999Z" fill="#ECC1C1"/>
<path d="M237 210C237 212.3 263.6 305.9 264.5 306.8C264.8 307.1 265.9 306.5 267 305.4C269 303.5 268.9 303.2 256.6 260C249.8 236.1 243.7 214.6 243 212.2C242.1 208.7 241.5 208 239.5 208C237.7 208 237 208.5 237 210Z" fill="#ECC1C1"/>
<path d="M191.404 230.5C190.604 232.4 226.804 333 228.204 333C228.704 333 229.904 332.6 230.904 332C232.604 331.1 231.304 327.1 214.904 281.8C205.104 254.7 196.604 231.8 196.204 231C194.904 228.9 192.104 228.6 191.404 230.5Z" fill="#ECC1C1"/>
<path d="M142.402 243.5C141.602 245.4 139.702 240.7 166.902 301.5C188.102 349.1 189.802 352.5 192.002 352.2C193.302 352.1 194.602 351.8 194.802 351.5C195.302 351.1 148.302 245.3 146.702 243.2C145.402 241.5 143.102 241.7 142.402 243.5Z" fill="#ECC1C1"/>
<path d="M267.2 308.7L265 310.5L268.5 322.5C272.3 335.5 274 338.4 276.4 336C277.6 334.7 277.3 332.7 274.1 321.2C272 313.9 270.1 307.7 269.8 307.4C269.5 307.2 268.3 307.7 267.2 308.7Z" fill="#ECC1C1"/>
<path d="M230.504 335.4C228.804 336.7 228.804 337 231.504 344.6C234.604 353.2 236.504 355.7 238.704 353.9C239.404 353.3 240.004 352.4 240.004 351.9C240.004 350.2 233.804 334 233.104 334C232.704 334 231.604 334.6 230.504 335.4Z" fill="#ECC1C1"/>
<path d="M192.803 355.1C191.203 356 191.203 356.4 193.203 360.5C195.303 364.9 198.103 366.3 199.503 363.9C200.503 362.5 197.103 354 195.703 354C195.003 354 193.703 354.5 192.803 355.1Z" fill="#ECC1C1"/>
</svg>
